<?xml version="1.0" encoding="UTF-8" standalone="no"?>
<svg
   width="382pt"
   height="274pt"
   viewBox="0 0 382 274"
   version="1.1"
   id="svg374"
   sodipodi:docname="2-2-logistic-mbx_slopes_only.svg"
   inkscape:version="1.2.2 (b0a8486541, 2022-12-01)"
   inkscape:export-filename="2-2-logistic-mbx_slopes_only.pdf"
   inkscape:export-xdpi="400"
   inkscape:export-ydpi="400"
   xmlns:inkscape="http://www.inkscape.org/namespaces/inkscape"
   xmlns:sodipodi="http://sodipodi.sourceforge.net/DTD/sodipodi-0.dtd"
   xmlns:xlink="http://www.w3.org/1999/xlink"
   xmlns="http://www.w3.org/2000/svg"
   xmlns:svg="http://www.w3.org/2000/svg">
  <sodipodi:namedview
     id="namedview376"
     pagecolor="#ffffff"
     bordercolor="#666666"
     borderopacity="1.0"
     inkscape:showpageshadow="2"
     inkscape:pageopacity="0.0"
     inkscape:pagecheckerboard="0"
     inkscape:deskcolor="#d1d1d1"
     inkscape:document-units="pt"
     showgrid="false"
     inkscape:zoom="2.3759124"
     inkscape:cx="173.61751"
     inkscape:cy="182.87711"
     inkscape:window-width="1920"
     inkscape:window-height="1031"
     inkscape:window-x="0"
     inkscape:window-y="25"
     inkscape:window-maximized="1"
     inkscape:current-layer="svg374" />
  <defs
     id="defs92">
    <clipPath
       id="a">
      <path
         d="M21 8.5h1v255h-1zm0 0"
         id="path2" />
    </clipPath>
    <clipPath
       id="b">
      <path
         d="M21 178h340v1H21zm0 0"
         id="path5" />
    </clipPath>
    <clipPath
       id="c">
      <path
         d="M21 8.5h1v255h-1zm0 0"
         id="path8" />
    </clipPath>
    <clipPath
       id="d">
      <path
         d="M105 8.5h2v255h-2zm0 0"
         id="path11" />
    </clipPath>
    <clipPath
       id="e">
      <path
         d="M190 8.5h2v255h-2zm0 0"
         id="path14" />
    </clipPath>
    <clipPath
       id="f">
      <path
         d="M275 8.5h2v255h-2zm0 0"
         id="path17" />
    </clipPath>
    <clipPath
       id="g">
      <path
         d="M360 8.5h1v255h-1zm0 0"
         id="path20" />
    </clipPath>
    <clipPath
       id="h">
      <path
         d="M21 263h340v.5H21zm0 0"
         id="path23" />
    </clipPath>
    <clipPath
       id="i">
      <path
         d="M21 220h340v2H21zm0 0"
         id="path26" />
    </clipPath>
    <clipPath
       id="j">
      <path
         d="M21 178h340v1H21zm0 0"
         id="path29" />
    </clipPath>
    <clipPath
       id="k">
      <path
         d="M21 135h340v2H21zm0 0"
         id="path32" />
    </clipPath>
    <clipPath
       id="l">
      <path
         d="M21 93h340v1H21zm0 0"
         id="path35" />
    </clipPath>
    <clipPath
       id="m">
      <path
         d="M21 50h340v2H21zm0 0"
         id="path38" />
    </clipPath>
    <clipPath
       id="n">
      <path
         d="M21 8.5h340V9H21zm0 0"
         id="path41" />
    </clipPath>
    <clipPath
       id="v">
      <path
         d="M21 8.5h340V95H21zm0 0"
         id="path44" />
    </clipPath>
    <clipPath
       id="w">
      <path
         d="M21 92h340v3H21zm0 0"
         id="path47" />
    </clipPath>
    <clipPath
       id="x">
      <path
         d="M21 177h340v3H21zm0 0"
         id="path50" />
    </clipPath>
    <clipPath
       id="y">
      <path
         d="M21 107h340v73H21zm0 0"
         id="path53" />
    </clipPath>
    <clipPath
       id="z">
      <path
         d="M21 177h270v86.5H21zm0 0"
         id="path56" />
    </clipPath>
    <clipPath
       id="A">
      <path
         d="M21 178h192v85.5H21zm0 0"
         id="path59" />
    </clipPath>
    <clipPath
       id="B">
      <path
         d="M21 94h340v85H21zm0 0"
         id="path62" />
    </clipPath>
    <clipPath
       id="C">
      <path
         d="M21 92h340v81H21zm0 0"
         id="path65" />
    </clipPath>
    <clipPath
       id="D">
      <path
         d="M21 182h79v81.5H21zm0 0"
         id="path68" />
    </clipPath>
    <symbol
       overflow="visible"
       id="o">
      <path
         style="stroke:none"
         d="M2.063-5.313c-.5 0-.938.22-1.22.579C.5-4.266.329-3.563.329-2.578c0 1.797.594 2.75 1.734 2.75 1.126 0 1.735-.953 1.735-2.703 0-1.031-.156-1.719-.516-2.203-.281-.375-.719-.579-1.219-.579zm0 .579c.718 0 1.062.718 1.062 2.14 0 1.516-.344 2.219-1.078 2.219C1.344-.375 1-1.109 1-2.563c0-1.453.344-2.171 1.063-2.171zm0 0"
         id="path71" />
    </symbol>
    <symbol
       overflow="visible"
       id="p">
      <path
         style="stroke:none"
         d="M3.563-5.313H.828L.422-2.421h.61c.312-.375.562-.5.984-.5.703 0 1.156.485 1.156 1.281 0 .766-.438 1.235-1.156 1.235-.579 0-.938-.297-1.094-.906H.266c.093.437.156.656.312.843.313.406.844.64 1.453.64 1.063 0 1.813-.78 1.813-1.905 0-1.047-.688-1.766-1.719-1.766-.375 0-.672.094-.984.313l.218-1.485h2.204zm0 0"
         id="path74" />
    </symbol>
    <symbol
       overflow="visible"
       id="q">
      <path
         style="stroke:none"
         d="M1.938-3.781V0h.671v-5.313h-.437c-.235.813-.39.922-1.406 1.047v.485zm0 0"
         id="path77" />
    </symbol>
    <symbol
       overflow="visible"
       id="r">
      <path
         style="stroke:none"
         d="M3.797-.656H1c.063-.438.313-.703.953-1.094l.75-.406c.75-.406 1.125-.953 1.125-1.594 0-.453-.172-.86-.484-1.14-.328-.298-.719-.423-1.219-.423-.672 0-1.172.235-1.469.688-.187.281-.265.61-.281 1.156h.656c.032-.36.078-.578.157-.75.171-.328.515-.515.921-.515.594 0 1.047.421 1.047.984 0 .422-.25.781-.719 1.063l-.687.39C.64-1.672.312-1.172.25 0h3.547zm0 0"
         id="path80" />
    </symbol>
    <symbol
       overflow="visible"
       id="s">
      <path
         style="stroke:none"
         d="M2.125-2.344H.344v.547h1.781zm0 0"
         id="path83" />
    </symbol>
    <symbol
       overflow="visible"
       id="t">
      <path
         style="stroke:none"
         d="M1.438-.781H.655V0h.781zm0 0"
         id="path86" />
    </symbol>
    <symbol
       overflow="visible"
       id="u">
      <path
         style="stroke:none"
         d="M3.906-5.313H.344v.641h2.875C1.953-2.859 1.438-1.75 1.03 0h.703c.297-1.703.97-3.172 2.172-4.766zm0 0"
         id="path89" />
    </symbol>
  </defs>
  <path
     style="stroke:none;fill-rule:nonzero;fill:#fff;fill-opacity:1"
     d="M21 263.5h340V8.5H21zm0 0"
     id="path94" />
  <g
     clip-path="url(#a)"
     id="g98">
    <path
       style="fill:none;stroke-width:6.25;stroke-linecap:round;stroke-linejoin:miter;stroke:#bfbfbf;stroke-opacity:1;stroke-miterlimit:10"
       d="M210 105v2550"
       transform="matrix(.1 0 0 -.1 0 274)"
       id="path96" />
  </g>
  <g
     clip-path="url(#b)"
     id="g102">
    <path
       style="fill:none;stroke-width:6.25;stroke-linecap:round;stroke-linejoin:miter;stroke:#bfbfbf;stroke-opacity:1;stroke-miterlimit:10"
       d="M210 955h3400"
       transform="matrix(.1 0 0 -.1 0 274)"
       id="path100" />
  </g>
  <g
     clip-path="url(#c)"
     id="g106">
    <path
       style="fill:none;stroke-width:6.25;stroke-linecap:round;stroke-linejoin:miter;stroke:#bfbfbf;stroke-opacity:1;stroke-dasharray:12.5,18.75;stroke-miterlimit:10"
       d="M210 105v2550"
       transform="matrix(.1 0 0 -.1 0 274)"
       id="path104" />
  </g>
  <g
     clip-path="url(#d)"
     id="g110">
    <path
       style="fill:none;stroke-width:6.25;stroke-linecap:round;stroke-linejoin:miter;stroke:#bfbfbf;stroke-opacity:1;stroke-dasharray:12.5,18.75;stroke-miterlimit:10"
       d="M1060 105v2550"
       transform="matrix(.1 0 0 -.1 0 274)"
       id="path108" />
  </g>
  <g
     clip-path="url(#e)"
     id="g114">
    <path
       style="fill:none;stroke-width:6.25;stroke-linecap:round;stroke-linejoin:miter;stroke:#bfbfbf;stroke-opacity:1;stroke-dasharray:12.5,18.75;stroke-miterlimit:10"
       d="M1910 105v2550"
       transform="matrix(.1 0 0 -.1 0 274)"
       id="path112" />
  </g>
  <g
     clip-path="url(#f)"
     id="g118">
    <path
       style="fill:none;stroke-width:6.25;stroke-linecap:round;stroke-linejoin:miter;stroke:#bfbfbf;stroke-opacity:1;stroke-dasharray:12.5,18.75;stroke-miterlimit:10"
       d="M2760 105v2550"
       transform="matrix(.1 0 0 -.1 0 274)"
       id="path116" />
  </g>
  <g
     clip-path="url(#g)"
     id="g122">
    <path
       style="fill:none;stroke-width:6.25;stroke-linecap:round;stroke-linejoin:miter;stroke:#bfbfbf;stroke-opacity:1;stroke-dasharray:12.5,18.75;stroke-miterlimit:10"
       d="M3610 105v2550"
       transform="matrix(.1 0 0 -.1 0 274)"
       id="path120" />
  </g>
  <g
     clip-path="url(#h)"
     id="g126">
    <path
       style="fill:none;stroke-width:6.25;stroke-linecap:round;stroke-linejoin:miter;stroke:#bfbfbf;stroke-opacity:1;stroke-dasharray:12.5,18.75;stroke-miterlimit:10"
       d="M210 105h3400"
       transform="matrix(.1 0 0 -.1 0 274)"
       id="path124" />
  </g>
  <g
     clip-path="url(#i)"
     id="g130">
    <path
       style="fill:none;stroke-width:6.25;stroke-linecap:round;stroke-linejoin:miter;stroke:#bfbfbf;stroke-opacity:1;stroke-dasharray:12.5,18.75;stroke-miterlimit:10"
       d="M210 530h3400"
       transform="matrix(.1 0 0 -.1 0 274)"
       id="path128" />
  </g>
  <g
     clip-path="url(#j)"
     id="g134">
    <path
       style="fill:none;stroke-width:6.25;stroke-linecap:round;stroke-linejoin:miter;stroke:#bfbfbf;stroke-opacity:1;stroke-dasharray:12.5,18.75;stroke-miterlimit:10"
       d="M210 955h3400"
       transform="matrix(.1 0 0 -.1 0 274)"
       id="path132" />
  </g>
  <g
     clip-path="url(#k)"
     id="g138">
    <path
       style="fill:none;stroke-width:6.25;stroke-linecap:round;stroke-linejoin:miter;stroke:#bfbfbf;stroke-opacity:1;stroke-dasharray:12.5,18.75;stroke-miterlimit:10"
       d="M210 1380h3400"
       transform="matrix(.1 0 0 -.1 0 274)"
       id="path136" />
  </g>
  <g
     clip-path="url(#l)"
     id="g142">
    <path
       style="fill:none;stroke-width:6.25;stroke-linecap:round;stroke-linejoin:miter;stroke:#bfbfbf;stroke-opacity:1;stroke-dasharray:12.5,18.75;stroke-miterlimit:10"
       d="M210 1805h3400"
       transform="matrix(.1 0 0 -.1 0 274)"
       id="path140" />
  </g>
  <g
     clip-path="url(#m)"
     id="g146">
    <path
       style="fill:none;stroke-width:6.25;stroke-linecap:round;stroke-linejoin:miter;stroke:#bfbfbf;stroke-opacity:1;stroke-dasharray:12.5,18.75;stroke-miterlimit:10"
       d="M210 2230h3400"
       transform="matrix(.1 0 0 -.1 0 274)"
       id="path144" />
  </g>
  <g
     clip-path="url(#n)"
     id="g150">
    <path
       style="fill:none;stroke-width:6.25;stroke-linecap:round;stroke-linejoin:miter;stroke:#bfbfbf;stroke-opacity:1;stroke-dasharray:12.5,18.75;stroke-miterlimit:10"
       d="M210 2655h3400"
       transform="matrix(.1 0 0 -.1 0 274)"
       id="path148" />
  </g>
  <path
     style="fill:none;stroke-width:12.5;stroke-linecap:square;stroke-linejoin:miter;stroke:#000;stroke-opacity:1;stroke-miterlimit:10"
     d="M210 105h3400"
     transform="matrix(.1 0 0 -.1 0 274)"
     id="path152" />
  <path
     style="fill:none;stroke-width:6.25;stroke-linecap:butt;stroke-linejoin:miter;stroke:#000;stroke-opacity:1;stroke-miterlimit:10"
     d="M210 105v50m85-50v25m85-25v25m85-25v25m85-25v25m85-25v25m85-25v25m85-25v25m85-25v25m85-25v25m85-25v50m85-50v25m85-25v25m85-25v25m85-25v25m85-25v25m85-25v25m85-25v25m85-25v25m85-25v25m85-25v50m85-50v25m85-25v25m85-25v25m85-25v25m85-25v25m85-25v25m85-25v25m85-25v25m85-25v25m85-25v50m85-50v25m85-25v25m85-25v25m85-25v25m85-25v25m85-25v25m85-25v25m85-25v25m85-25v25m85-25v50"
     transform="matrix(.1 0 0 -.1 0 274)"
     id="path154" />
  <use
     xlink:href="#o"
     x="18.29"
     y="273.5"
     style="fill:#000;fill-opacity:1"
     id="use156" />
  <use
     xlink:href="#p"
     x="103.29"
     y="273.5"
     style="fill:#000;fill-opacity:1"
     id="use158" />
  <g
     style="fill:#000;fill-opacity:1"
     id="g164">
    <use
       xlink:href="#q"
       x="186.829"
       y="273.5"
       id="use160" />
    <use
       xlink:href="#o"
       x="190.999"
       y="273.5"
       id="use162" />
  </g>
  <g
     style="fill:#000;fill-opacity:1"
     id="g170">
    <use
       xlink:href="#q"
       x="271.829"
       y="273.5"
       id="use166" />
    <use
       xlink:href="#p"
       x="275.999"
       y="273.5"
       id="use168" />
  </g>
  <g
     style="fill:#000;fill-opacity:1"
     id="g176">
    <use
       xlink:href="#r"
       x="356.829"
       y="273.5"
       id="use172" />
    <use
       xlink:href="#o"
       x="360.999"
       y="273.5"
       id="use174" />
  </g>
  <path
     style="fill:none;stroke-width:12.5;stroke-linecap:square;stroke-linejoin:miter;stroke:#000;stroke-opacity:1;stroke-miterlimit:10"
     d="M210 2655h3400"
     transform="matrix(.1 0 0 -.1 0 274)"
     id="path178" />
  <path
     style="fill:none;stroke-width:6.25;stroke-linecap:butt;stroke-linejoin:miter;stroke:#000;stroke-opacity:1;stroke-miterlimit:10"
     d="M210 2655v-50m85 50v-25m85 25v-25m85 25v-25m85 25v-25m85 25v-25m85 25v-25m85 25v-25m85 25v-25m85 25v-25m85 25v-50m85 50v-25m85 25v-25m85 25v-25m85 25v-25m85 25v-25m85 25v-25m85 25v-25m85 25v-25m85 25v-25m85 25v-50m85 50v-25m85 25v-25m85 25v-25m85 25v-25m85 25v-25m85 25v-25m85 25v-25m85 25v-25m85 25v-25m85 25v-50m85 50v-25m85 25v-25m85 25v-25m85 25v-25m85 25v-25m85 25v-25m85 25v-25m85 25v-25m85 25v-25m85 25v-50"
     transform="matrix(.1 0 0 -.1 0 274)"
     id="path180" />
  <use
     xlink:href="#o"
     x="18.29"
     y="5.375"
     style="fill:#000;fill-opacity:1"
     id="use182" />
  <use
     xlink:href="#p"
     x="103.29"
     y="5.375"
     style="fill:#000;fill-opacity:1"
     id="use184" />
  <g
     style="fill:#000;fill-opacity:1"
     id="g190">
    <use
       xlink:href="#q"
       x="186.829"
       y="5.375"
       id="use186" />
    <use
       xlink:href="#o"
       x="190.999"
       y="5.375"
       id="use188" />
  </g>
  <g
     style="fill:#000;fill-opacity:1"
     id="g196">
    <use
       xlink:href="#q"
       x="271.829"
       y="5.375"
       id="use192" />
    <use
       xlink:href="#p"
       x="275.999"
       y="5.375"
       id="use194" />
  </g>
  <g
     style="fill:#000;fill-opacity:1"
     id="g202">
    <use
       xlink:href="#r"
       x="356.829"
       y="5.375"
       id="use198" />
    <use
       xlink:href="#o"
       x="360.999"
       y="5.375"
       id="use200" />
  </g>
  <path
     style="fill:none;stroke-width:12.5;stroke-linecap:square;stroke-linejoin:miter;stroke:#000;stroke-opacity:1;stroke-miterlimit:10"
     d="M210 105v2550"
     transform="matrix(.1 0 0 -.1 0 274)"
     id="path204" />
  <path
     style="fill:none;stroke-width:6.25;stroke-linecap:butt;stroke-linejoin:miter;stroke:#000;stroke-opacity:1;stroke-miterlimit:10"
     d="M210 105h50m-50 42.5h25M210 190h25m-25 42.5h25M210 275h25m-25 42.5h25M210 360h25m-25 42.5h25M210 445h25m-25 42.5h25M210 530h50m-50 42.5h25M210 615h25m-25 42.5h25M210 700h25m-25 42.5h25M210 785h25m-25 42.5h25M210 870h25m-25 42.5h25M210 955h50m-50 42.5h25m-25 42.5h25m-25 42.5h25m-25 42.5h25m-25 42.5h25m-25 42.5h25m-25 42.5h25m-25 42.5h25m-25 42.5h25m-25 42.5h50m-50 42.5h25m-25 42.5h25m-25 42.5h25m-25 42.5h25m-25 42.5h25m-25 42.5h25m-25 42.5h25m-25 42.5h25m-25 42.5h25m-25 42.5h50m-50 42.5h25m-25 42.5h25m-25 42.5h25m-25 42.5h25m-25 42.5h25m-25 42.5h25m-25 42.5h25m-25 42.5h25m-25 42.5h25m-25 42.5h50m-50 42.5h25m-25 42.5h25m-25 42.5h25m-25 42.5h25m-25 42.5h25m-25 42.5h25m-25 42.5h25m-25 42.5h25m-25 42.5h25m-25 42.5h50"
     transform="matrix(.1 0 0 -.1 0 274)"
     id="path206" />
  <g
     style="fill:#000;fill-opacity:1"
     id="g216">
    <use
       xlink:href="#s"
       x="1.203"
       y="267.25"
       id="use208" />
    <use
       xlink:href="#p"
       x="3.701"
       y="267.25"
       id="use210" />
    <use
       xlink:href="#t"
       x="7.871"
       y="267.25"
       id="use212" />
    <use
       xlink:href="#o"
       x="9.956"
       y="267.25"
       id="use214" />
  </g>
  <g
     style="fill:#000;fill-opacity:1"
     id="g226">
    <use
       xlink:href="#s"
       x="1.203"
       y="224.125"
       id="use218" />
    <use
       xlink:href="#r"
       x="3.701"
       y="224.125"
       id="use220" />
    <use
       xlink:href="#t"
       x="7.871"
       y="224.125"
       id="use222" />
    <use
       xlink:href="#p"
       x="9.956"
       y="224.125"
       id="use224" />
  </g>
  <g
     style="fill:#000;fill-opacity:1"
     id="g234">
    <use
       xlink:href="#o"
       x="3.7"
       y="182.25"
       id="use228" />
    <use
       xlink:href="#t"
       x="7.87"
       y="182.25"
       id="use230" />
    <use
       xlink:href="#o"
       x="9.955"
       y="182.25"
       id="use232" />
  </g>
  <g
     style="fill:#000;fill-opacity:1"
     id="g242">
    <use
       xlink:href="#r"
       x="3.7"
       y="139.125"
       id="use236" />
    <use
       xlink:href="#t"
       x="7.87"
       y="139.125"
       id="use238" />
    <use
       xlink:href="#p"
       x="9.955"
       y="139.125"
       id="use240" />
  </g>
  <g
     style="fill:#000;fill-opacity:1"
     id="g250">
    <use
       xlink:href="#p"
       x="3.7"
       y="97.25"
       id="use244" />
    <use
       xlink:href="#t"
       x="7.87"
       y="97.25"
       id="use246" />
    <use
       xlink:href="#o"
       x="9.955"
       y="97.25"
       id="use248" />
  </g>
  <g
     style="fill:#000;fill-opacity:1"
     id="g258">
    <use
       xlink:href="#u"
       x="3.7"
       y="54.125"
       id="use252" />
    <use
       xlink:href="#t"
       x="7.87"
       y="54.125"
       id="use254" />
    <use
       xlink:href="#p"
       x="9.955"
       y="54.125"
       id="use256" />
  </g>
  <g
     style="fill:#000;fill-opacity:1"
     id="g268">
    <use
       xlink:href="#q"
       x="-.47"
       y="11.625"
       id="use260" />
    <use
       xlink:href="#o"
       x="3.7"
       y="11.625"
       id="use262" />
    <use
       xlink:href="#t"
       x="7.87"
       y="11.625"
       id="use264" />
    <use
       xlink:href="#o"
       x="9.955"
       y="11.625"
       id="use266" />
  </g>
  <path
     style="fill:none;stroke-width:12.5;stroke-linecap:square;stroke-linejoin:miter;stroke:#000;stroke-opacity:1;stroke-miterlimit:10"
     d="M3610 105v2550"
     transform="matrix(.1 0 0 -.1 0 274)"
     id="path270" />
  <path
     style="fill:none;stroke-width:6.25;stroke-linecap:butt;stroke-linejoin:miter;stroke:#000;stroke-opacity:1;stroke-miterlimit:10"
     d="M3610 105h-50m50 42.5h-25m25 42.5h-25m25 42.5h-25m25 42.5h-25m25 42.5h-25m25 42.5h-25m25 42.5h-25m25 42.5h-25m25 42.5h-25m25 42.5h-50m50 42.5h-25m25 42.5h-25m25 42.5h-25m25 42.5h-25m25 42.5h-25m25 42.5h-25m25 42.5h-25m25 42.5h-25m25 42.5h-25m25 42.5h-50m50 42.5h-25m25 42.5h-25m25 42.5h-25m25 42.5h-25m25 42.5h-25m25 42.5h-25m25 42.5h-25m25 42.5h-25m25 42.5h-25m25 42.5h-50m50 42.5h-25m25 42.5h-25m25 42.5h-25m25 42.5h-25m25 42.5h-25m25 42.5h-25m25 42.5h-25m25 42.5h-25m25 42.5h-25m25 42.5h-50m50 42.5h-25m25 42.5h-25m25 42.5h-25m25 42.5h-25m25 42.5h-25m25 42.5h-25m25 42.5h-25m25 42.5h-25m25 42.5h-25m25 42.5h-50m50 42.5h-25m25 42.5h-25m25 42.5h-25m25 42.5h-25m25 42.5h-25m25 42.5h-25m25 42.5h-25m25 42.5h-25m25 42.5h-25m25 42.5h-50"
     transform="matrix(.1 0 0 -.1 0 274)"
     id="path272" />
  <g
     style="fill:#000;fill-opacity:1"
     id="g282">
    <use
       xlink:href="#s"
       x="367.25"
       y="267.25"
       id="use274" />
    <use
       xlink:href="#p"
       x="369.748"
       y="267.25"
       id="use276" />
    <use
       xlink:href="#t"
       x="373.918"
       y="267.25"
       id="use278" />
    <use
       xlink:href="#o"
       x="376.002"
       y="267.25"
       id="use280" />
  </g>
  <g
     style="fill:#000;fill-opacity:1"
     id="g292">
    <use
       xlink:href="#s"
       x="367.25"
       y="224.125"
       id="use284" />
    <use
       xlink:href="#r"
       x="369.748"
       y="224.125"
       id="use286" />
    <use
       xlink:href="#t"
       x="373.918"
       y="224.125"
       id="use288" />
    <use
       xlink:href="#p"
       x="376.002"
       y="224.125"
       id="use290" />
  </g>
  <g
     style="fill:#000;fill-opacity:1"
     id="g300">
    <use
       xlink:href="#o"
       x="367.25"
       y="182.25"
       id="use294" />
    <use
       xlink:href="#t"
       x="371.42"
       y="182.25"
       id="use296" />
    <use
       xlink:href="#o"
       x="373.505"
       y="182.25"
       id="use298" />
  </g>
  <g
     style="fill:#000;fill-opacity:1"
     id="g308">
    <use
       xlink:href="#r"
       x="367.25"
       y="139.125"
       id="use302" />
    <use
       xlink:href="#t"
       x="371.42"
       y="139.125"
       id="use304" />
    <use
       xlink:href="#p"
       x="373.505"
       y="139.125"
       id="use306" />
  </g>
  <g
     style="fill:#000;fill-opacity:1"
     id="g316">
    <use
       xlink:href="#p"
       x="367.25"
       y="97.25"
       id="use310" />
    <use
       xlink:href="#t"
       x="371.42"
       y="97.25"
       id="use312" />
    <use
       xlink:href="#o"
       x="373.505"
       y="97.25"
       id="use314" />
  </g>
  <g
     style="fill:#000;fill-opacity:1"
     id="g324">
    <use
       xlink:href="#u"
       x="367.25"
       y="54.125"
       id="use318" />
    <use
       xlink:href="#t"
       x="371.42"
       y="54.125"
       id="use320" />
    <use
       xlink:href="#p"
       x="373.505"
       y="54.125"
       id="use322" />
  </g>
  <g
     style="fill:#000;fill-opacity:1"
     id="g334">
    <use
       xlink:href="#q"
       x="367.25"
       y="11.625"
       id="use326" />
    <use
       xlink:href="#o"
       x="371.42"
       y="11.625"
       id="use328" />
    <use
       xlink:href="#t"
       x="375.59"
       y="11.625"
       id="use330" />
    <use
       xlink:href="#o"
       x="377.675"
       y="11.625"
       id="use332" />
  </g>
  <path
     style="fill:none;stroke-width:6.25;stroke-linecap:round;stroke-linejoin:miter;stroke:#00f;stroke-opacity:1;stroke-miterlimit:10"
     d="m283.828 218.516 22.344-99.532m0 0h0m-25.391 226.25 28.438-97.968m0 0h0M276.328 471.21l37.344-94.92m0 0h0m-43.945 219.257 50.546-88.594m0 0h0m-60 209.18 69.454-74.766m0 0h0M249.648 829.57l90.704-46.64m0 0h0m-96.25 154.101 101.796-6.562m0 0h0M245.82 1047.813l98.36 26.874m0 .001h0m-94.844 91.328 91.328 45.468m0 0h0m-89.18 78.164 87.032 53.204m0 0h0m-87.032 74.296 87.032 53.204m0 0h0m-89.18 78.164 91.328 45.468m0 0h0m-94.844 91.329 98.36 26.874m0 .001h0m-100.078 117.304 101.796-6.484m0 0h0m-96.25 154.062 90.704-46.64m0 0h0m-80.079 188.203 69.454-74.766m0 0h0m-60 209.18 50.546-88.594m0 0h0m-43.945 219.257 37.344-94.92m0 0h0m-32.891 223.944 28.438-97.968m0 0h0m-25.391 226.25 22.344-99.532m0 0h0M453.828 218.516l22.344-99.532m0 0h0m-25.391 226.25 28.438-97.968m0 0h0M446.328 471.21l37.344-94.92m0 0h0m-43.945 219.257 50.546-88.594m0 0h0m-60 209.18 69.454-74.766m0 0h0M419.648 829.57l90.704-46.64m0 0h0m-96.25 154.101 101.796-6.562m0 0h0M415.82 1047.813l98.36 26.874m0 .001h0m-94.844 91.328 91.328 45.468m0 0h0m-89.18 78.164 87.032 53.204m0 0h0m-87.032 74.296 87.032 53.204m0 0h0m-89.18 78.164 91.328 45.468m0 0h0m-94.844 91.329 98.36 26.874m0 .001h0m-100.078 117.304 101.796-6.484m0 0h0m-96.25 154.062 90.704-46.64m0 0h0m-80.079 188.203 69.454-74.766m0 0h0m-60 209.18 50.546-88.594m0 0h0m-43.945 219.257 37.344-94.92m0 0h0m-32.891 223.944 28.438-97.968m0 0h0m-25.391 226.25 22.344-99.532m0 0h0M623.828 218.516l22.344-99.532m0 0h0m-25.391 226.25 28.438-97.968m0 0h0M616.328 471.21l37.344-94.92m0 0h0m-43.945 219.257 50.546-88.594m0 0h0m-59.96 209.18 69.375-74.766m0 0h0m-80.04 188.203 90.704-46.64m0 0h0m-96.25 154.101 101.796-6.562m0 0h0M585.82 1047.813l98.36 26.874m0 .001h0m-94.844 91.328 91.328 45.468m0 0h0m-89.18 78.164 87.032 53.204m0 0h0m-87.032 74.296 87.032 53.204m0 0h0m-89.18 78.164 91.328 45.468m0 0h0m-94.844 91.329 98.36 26.874m0 .001h0m-100.078 117.304 101.796-6.484m0 0h0m-96.25 154.062 90.704-46.64m0 0h0m-80.039 188.203 69.375-74.766m0 0h0m-59.961 209.18 50.546-88.594m0 0h0m-43.945 219.257 37.344-94.92m0 0h0m-32.891 223.944 28.438-97.968m0 0h0m-25.391 226.25 22.344-99.532m0 0h0M793.828 218.516l22.344-99.532m0 0h0m-25.391 226.25 28.438-97.968m0 0h0M786.328 471.21l37.344-94.92m0 0h0m-43.945 219.257 50.546-88.594m0 0h0m-59.96 209.18 69.375-74.766m0 0h0m-80.04 188.203 90.704-46.64m0 0h0m-96.25 154.101 101.796-6.562m0 0h0M755.82 1047.813l98.36 26.874m0 .001h0m-94.844 91.328 91.328 45.468m0 0h0m-89.18 78.164 87.032 53.204m0 0h0m-87.032 74.296 87.032 53.204m0 0h0m-89.18 78.164 91.328 45.468m0 0h0m-94.844 91.329 98.36 26.874m0 .001h0m-100.078 117.304 101.796-6.484m0 0h0m-96.25 154.062 90.704-46.64m0 0h0m-80.039 188.203 69.375-74.766m0 0h0m-59.961 209.18 50.546-88.594m0 0h0m-43.945 219.257 37.344-94.92m0 0h0m-32.891 223.944 28.438-97.968m0 0h0m-25.391 226.25 22.344-99.532m0 0h0M963.828 218.516l22.344-99.532m0 0h0m-25.391 226.25 28.438-97.968m0 0h0M956.328 471.21l37.344-94.92m0 0h0m-43.945 219.257 50.546-88.594m0 0h0m-59.96 209.18 69.414-74.766m0 0h0M929.648 829.57l90.704-46.64m0 0h0m-96.25 154.101 101.796-6.562m0 0h0M925.82 1047.813l98.399 26.874m0 .001h0m-94.883 91.328 91.289 45.468m0 0h0m-89.141 78.164 87.032 53.204m0 0h0m-87.032 74.296 87.032 53.204m0 0h0m-89.18 78.164 91.289 45.468m0 0h0m-94.805 91.329 98.399 26.874m0 .001h0m-100.117 117.304 101.796-6.484m0 0h0m-96.25 154.062 90.704-46.64m0 0h0m-80.039 188.203 69.414-74.766m0 0h0m-60 209.18 50.546-88.594m0 0h0m-43.945 219.257 37.344-94.92m0 0h0m-32.891 223.944 28.438-97.968m0 0h0m-25.391 226.25 22.344-99.532m0 0h0m147.656-2322.968 22.344-99.532m0 0h0m-25.43 226.25 28.516-97.968m0 0h0m-32.93 223.944 37.344-94.92m0 0h0m-43.945 219.257 50.546-88.594m0 0h0m-60 209.18 69.454-74.766m0 0h0m-80.079 188.203 90.704-46.64m0 0h0m-96.25 154.101 101.796-6.562m0 0h0m-100.117 117.344 98.438 26.874m0 .001h0m-94.844 91.328 91.25 45.468m0 0h0m-89.141 78.164 87.032 53.204m0 0h0m-87.032 74.296 87.032 53.204m0 0h0m-89.141 78.164 91.25 45.468m0 0h0m-94.844 91.329 98.438 26.874m0 .001h0m-100.117 117.304 101.796-6.484m0 0h0m-96.25 154.062 90.704-46.64m0 0h0m-80.079 188.203 69.454-74.766m0 0h0m-60 209.18 50.546-88.594m0 0h0m-43.945 219.257 37.344-94.92m0 0h0m-32.93 223.944 28.516-97.968m0 0h0m-25.43 226.25 22.344-99.532m0 0h0m147.656-2322.968 22.344-99.532m0 0h0m-25.43 226.25 28.516-97.968m0 0h0m-32.93 223.944 37.344-94.92m0 0h0m-43.945 219.257 50.546-88.594m0 0h0m-60 209.18 69.454-74.766m0 0h0m-80.079 188.203 90.704-46.64m0 0h0m-96.25 154.101 101.796-6.562m0 0h0m-100.117 117.344 98.438 26.874m0 .001h0m-94.844 91.328 91.25 45.468m0 0h0m-89.141 78.164 87.032 53.204m0 0h0m-87.032 74.296 87.032 53.204m0 0h0m-89.141 78.164 91.25 45.468m0 0h0m-94.844 91.329 98.438 26.874m0 .001h0m-100.117 117.304 101.796-6.484m0 0h0m-96.25 154.062 90.704-46.64m0 0h0m-80.079 188.203 69.454-74.766m0 0h0m-60 209.18 50.546-88.594m0 0h0m-43.945 219.257 37.344-94.92m0 0h0m-32.93 223.944 28.516-97.968m0 0h0m-25.43 226.25 22.344-99.532m0 0h0m147.656-2322.968 22.344-99.532m0 0h0m-25.43 226.25 28.516-97.968m0 0h0m-32.93 223.944 37.344-94.92m0 0h0m-43.945 219.257 50.546-88.594m0 0h0m-60 209.18 69.454-74.766m0 0h0m-80.079 188.203 90.704-46.64m0 0h0m-96.25 154.101 101.796-6.562m0 0h0m-100.117 117.344 98.438 26.874m0 .001h0m-94.844 91.328 91.25 45.468m0 0h0m-89.141 78.164 87.032 53.204m0 0h0m-87.032 74.296 87.032 53.204m0 0h0m-89.141 78.164 91.25 45.468m0 0h0m-94.844 91.329 98.438 26.874m0 .001h0m-100.117 117.304 101.796-6.484m0 0h0m-96.25 154.062 90.704-46.64m0 0h0m-80.079 188.203 69.454-74.766m0 0h0m-60 209.18 50.546-88.594m0 0h0m-43.945 219.257 37.344-94.92m0 0h0m-32.93 223.944 28.516-97.968m0 0h0m-25.43 226.25 22.344-99.532m0 0h0m147.656-2322.968 22.344-99.532m0 0h0m-25.43 226.25 28.516-97.968m0 0h0m-32.93 223.944 37.344-94.92m0 0h0m-43.945 219.257 50.546-88.594m0 0h0m-60 209.18 69.454-74.766m0 0h0m-80.079 188.203 90.704-46.64m0 0h0m-96.25 154.101 101.796-6.562m0 0h0m-100.117 117.344 98.438 26.874m0 .001h0m-94.844 91.328 91.25 45.468m0 0h0m-89.141 78.164 87.032 53.204m0 0h0m-87.032 74.296 87.032 53.204m0 0h0m-89.141 78.164 91.25 45.468m0 0h0m-94.844 91.329 98.438 26.874m0 .001h0m-100.117 117.304 101.796-6.484m0 0h0m-96.25 154.062 90.704-46.64m0 0h0m-80.079 188.203 69.454-74.766m0 0h0m-60 209.18 50.546-88.594m0 0h0m-43.945 219.257 37.344-94.92m0 0h0m-32.93 223.944 28.516-97.968m0 0h0m-25.43 226.25 22.344-99.532m0 0h0m147.656-2322.968 22.344-99.532m0 0h0m-25.43 226.25 28.516-97.968m0 0h0m-32.93 223.944 37.344-94.92m0 0h0m-43.945 219.257 50.546-88.594m0 0h0m-60 209.18 69.454-74.766m0 0h0m-80.079 188.203 90.704-46.64m0 0h0m-96.25 154.101 101.796-6.562m0 0h0m-100.117 117.344 98.438 26.874m0 .001h0m-94.844 91.328 91.25 45.468m0 0h0m-89.141 78.164 87.032 53.204m0 0h0m-87.032 74.296 87.032 53.204m0 0h0m-89.141 78.164 91.25 45.468m0 0h0m-94.844 91.329 98.438 26.874m0 .001h0m-100.117 117.304 101.796-6.484m0 0h0m-96.25 154.062 90.704-46.64m0 0h0m-80.079 188.203 69.454-74.766m0 0h0m-60 209.18 50.546-88.594m0 0h0m-43.945 219.257 37.344-94.92m0 0h0m-32.93 223.944 28.516-97.968m0 0h0m-25.43 226.25 22.344-99.532m0 0h0m147.656-2322.968 22.344-99.532m0 0h0m-25.43 226.25 28.516-97.968m0 0h0m-32.93 223.944 37.344-94.92m0 0h0m-43.945 219.257 50.546-88.594m0 0h0m-60 209.18 69.454-74.766m0 0h0m-80.079 188.203 90.704-46.64m0 0h0m-96.25 154.101 101.796-6.562m0 0h0m-100.117 117.344 98.438 26.874m0 .001h0m-94.844 91.328 91.25 45.468m0 0h0m-89.141 78.164 87.032 53.204m0 0h0m-87.032 74.296 87.032 53.204m0 0h0m-89.141 78.164 91.25 45.468m0 0h0m-94.844 91.329 98.438 26.874m0 .001h0m-100.117 117.304 101.796-6.484m0 0h0m-96.25 154.062 90.704-46.64m0 0h0m-80.079 188.203 69.454-74.766m0 0h0m-60 209.18 50.546-88.594m0 0h0m-43.945 219.257 37.344-94.92m0 0h0m-32.93 223.944 28.516-97.968m0 0h0m-25.43 226.25 22.344-99.532m0 0h0m147.656-2322.968 22.344-99.532m0 0h0m-25.43 226.25 28.516-97.968m0 0h0m-32.93 223.944 37.344-94.92m0 0h0m-43.945 219.257 50.546-88.594m0 0h0m-60 209.18 69.454-74.766m0 0h0m-80.079 188.203 90.704-46.64m0 0h0m-96.25 154.101 101.796-6.562m0 0h0m-100.117 117.344 98.438 26.874m0 .001h0m-94.844 91.328 91.25 45.468m0 0h0m-89.141 78.164 87.032 53.204m0 0h0m-87.032 74.296 87.032 53.204m0 0h0m-89.141 78.164 91.25 45.468m0 0h0m-94.844 91.329 98.438 26.874m0 .001h0m-100.117 117.304 101.796-6.484m0 0h0m-96.25 154.062 90.704-46.64m0 0h0m-80.079 188.203 69.454-74.766m0 0h0m-60 209.18 50.546-88.594m0 0h0m-43.945 219.257 37.344-94.92m0 0h0m-32.93 223.944 28.516-97.968m0 0h0m-25.43 226.25 22.344-99.532m0 0h0m147.656-2322.968 22.344-99.532m0 0h0m-25.43 226.25 28.516-97.968m0 0h0m-32.93 223.944 37.344-94.92m0 0h0m-43.945 219.257 50.546-88.594m0 0h0m-60 209.18 69.454-74.766m0 0h0m-80.079 188.203 90.704-46.64m0 0h0m-96.25 154.101 101.796-6.562m0 0h0m-100.117 117.344 98.438 26.874m0 .001h0m-94.844 91.328 91.25 45.468m0 0h0m-89.141 78.164 87.032 53.204m0 0h0m-87.032 74.296 87.032 53.204m0 0h0m-89.141 78.164 91.25 45.468m0 0h0m-94.844 91.329 98.438 26.874m0 .001h0m-100.117 117.304 101.796-6.484m0 0h0m-96.25 154.062 90.704-46.64m0 0h0m-80.079 188.203 69.454-74.766m0 0h0m-60 209.18 50.546-88.594m0 0h0m-43.945 219.257 37.344-94.92m0 0h0m-32.93 223.944 28.516-97.968m0 0h0m-25.43 226.25 22.344-99.532m0 0h0m147.656-2322.968 22.344-99.532m0 0h0m-25.43 226.25 28.516-97.968m0 0h0m-32.93 223.944 37.344-94.92m0 0h0m-43.945 219.257 50.546-88.594m0 0h0m-60 209.18 69.454-74.766m0 0h0m-80.079 188.203 90.704-46.64m0 0h0m-96.25 154.101 101.796-6.562m0 0h0m-100.117 117.344 98.438 26.874m0 .001h0m-94.844 91.328 91.25 45.468m0 0h0m-89.141 78.164 87.032 53.204m0 0h0m-87.032 74.296 87.032 53.204m0 0h0m-89.141 78.164 91.25 45.468m0 0h0m-94.844 91.329 98.438 26.874m0 .001h0m-100.117 117.304 101.796-6.484m0 0h0m-96.25 154.062 90.704-46.64m0 0h0m-80.079 188.203 69.454-74.766m0 0h0m-60 209.18 50.546-88.594m0 0h0m-43.945 219.257 37.344-94.92m0 0h0m-32.93 223.944 28.516-97.968m0 0h0m-25.43 226.25 22.344-99.532m0 0h0m147.656-2322.968 22.344-99.532m0 0h0m-25.43 226.25 28.516-97.968m0 0h0m-32.93 223.944 37.344-94.92m0 0h0m-43.945 219.257 50.546-88.594m0 0h0m-60 209.18 69.454-74.766m0 0h0m-80.079 188.203 90.704-46.64m0 0h0m-96.25 154.101 101.796-6.562m0 0h0m-100.117 117.344 98.438 26.874m0 .001h0m-94.844 91.328 91.25 45.468m0 0h0m-89.141 78.164 87.032 53.204m0 0h0m-87.032 74.296 87.032 53.204m0 0h0m-89.141 78.164 91.25 45.468m0 0h0m-94.844 91.329 98.438 26.874m0 .001h0m-100.117 117.304 101.796-6.484m0 0h0m-96.25 154.062 90.704-46.64m0 0h0m-80.079 188.203 69.454-74.766m0 0h0m-60 209.18 50.546-88.594m0 0h0m-43.945 219.257 37.344-94.92m0 0h0m-32.93 223.944 28.516-97.968m0 0h0m-25.43 226.25 22.344-99.532m0 0h0m147.656-2322.968 22.344-99.532m0 0h0m-25.43 226.25 28.516-97.968m0 0h0m-32.93 223.944 37.344-94.92m0 0h0m-43.945 219.257 50.546-88.594m0 0h0m-60 209.18 69.454-74.766m0 0h0m-80.079 188.203 90.704-46.64m0 0h0m-96.25 154.101 101.796-6.562m0 0h0m-100.117 117.344 98.438 26.874m0 .001h0m-94.844 91.328 91.25 45.468m0 0h0m-89.141 78.164 87.032 53.204m0 0h0m-87.032 74.296 87.032 53.204m0 0h0m-89.141 78.164 91.25 45.468m0 0h0m-94.844 91.329 98.438 26.874m0 .001h0m-100.117 117.304 101.796-6.484m0 0h0m-96.25 154.062 90.704-46.64m0 0h0m-80.079 188.203 69.454-74.766m0 0h0m-60 209.18 50.546-88.594m0 0h0m-43.945 219.257 37.344-94.92m0 0h0m-32.93 223.944 28.516-97.968m0 0h0m-25.43 226.25 22.344-99.532m0 0h0m147.656-2322.968 22.344-99.532m0 0h0m-25.43 226.25 28.516-97.968m0 0h0m-32.93 223.944 37.344-94.92m0 0h0m-43.945 219.257 50.546-88.594m0 0h0m-60 209.18 69.454-74.766m0 0h0m-80.079 188.203 90.704-46.64m0 0h0m-96.25 154.101 101.796-6.562m0 0h0m-100.117 117.344 98.438 26.874m0 .001h0m-94.844 91.328 91.25 45.468m0 0h0m-89.141 78.164 87.032 53.204m0 0h0m-87.032 74.296 87.032 53.204m0 0h0m-89.141 78.164 91.25 45.468m0 0h0m-94.844 91.329 98.438 26.874m0 .001h0m-100.117 117.304 101.796-6.484m0 0h0m-96.25 154.062 90.704-46.64m0 0h0m-80.079 188.203 69.454-74.766m0 0h0m-60 209.18 50.546-88.594m0 0h0m-43.945 219.257 37.344-94.92m0 0h0m-32.93 223.944 28.516-97.968m0 0h0m-25.43 226.25 22.344-99.532m0 0h0m147.656-2322.968 22.344-99.532m0 0h0m-25.43 226.25 28.516-97.968m0 0h0m-32.93 223.944 37.344-94.92m0 0h0m-43.945 219.257 50.546-88.594m0 0h0m-60 209.18 69.454-74.766m0 0h0m-80.079 188.203 90.704-46.64m0 0h0m-96.25 154.101 101.796-6.562m0 0h0m-100.117 117.344 98.438 26.874m0 .001h0m-94.844 91.328 91.25 45.468m0 0h0m-89.141 78.164 87.032 53.204m0 0h0m-87.032 74.296 87.032 53.204m0 0h0m-89.141 78.164 91.25 45.468m0 0h0m-94.844 91.329 98.438 26.874m0 .001h0m-100.117 117.304 101.796-6.484m0 0h0m-96.25 154.062 90.704-46.64m0 0h0m-80.079 188.203 69.454-74.766m0 0h0m-60 209.18 50.546-88.594m0 0h0m-43.945 219.257 37.344-94.92m0 0h0m-32.93 223.944 28.516-97.968m0 0h0m-25.43 226.25 22.344-99.532m0 0h0m147.656-2322.968 22.344-99.532m0 0h0m-25.43 226.25 28.516-97.968m0 0h0m-32.93 223.944 37.344-94.92m0 0h0m-43.945 219.257 50.546-88.594m0 0h0m-60 209.18 69.454-74.766m0 0h0m-80.079 188.203 90.704-46.64m0 0h0m-96.25 154.101 101.796-6.562m0 0h0m-100.117 117.344 98.438 26.874m0 .001h0m-94.844 91.328 91.25 45.468m0 0h0m-89.141 78.164 87.032 53.204m0 0h0m-87.032 74.296 87.032 53.204m0 0h0m-89.141 78.164 91.25 45.468m0 0h0m-94.844 91.329 98.438 26.874m0 .001h0m-100.117 117.304 101.796-6.484m0 0h0m-96.25 154.062 90.704-46.64m0 0h0m-80.079 188.203 69.454-74.766m0 0h0m-60 209.18 50.546-88.594m0 0h0m-43.945 219.257 37.344-94.92m0 0h0m-32.93 223.944 28.516-97.968m0 0h0m-25.43 226.25 22.344-99.532m0 0h0m147.656-2322.968 22.344-99.532m0 0h0m-25.43 226.25 28.516-97.968m0 0h0m-32.93 223.944 37.344-94.92m0 0h0m-43.945 219.257 50.546-88.594m0 0h0m-60 209.18 69.454-74.766m0 0h0m-80.079 188.203 90.704-46.64m0 0h0m-96.25 154.101 101.796-6.562m0 0h0m-100.117 117.344 98.438 26.874m0 .001h0m-94.844 91.328 91.25 45.468m0 0h0m-89.141 78.164 87.032 53.204m0 0h0m-87.032 74.296 87.032 53.204m0 0h0m-89.141 78.164 91.25 45.468m0 0h0m-94.844 91.329 98.438 26.874m0 .001h0m-100.117 117.304 101.796-6.484m0 0h0m-96.25 154.062 90.704-46.64m0 0h0m-80.079 188.203 69.454-74.766m0 0h0m-60 209.18 50.546-88.594m0 0h0m-43.945 219.257 37.344-94.92m0 0h0m-32.93 223.944 28.516-97.968m0 0h0m-25.43 226.25 22.344-99.532m0 0h0"
     transform="matrix(.1 0 0 -.1 0 274)"
     id="path336" />
</svg>
