<?xml version="1.0" encoding="UTF-8" standalone="no"?>
<!-- Created with Inkscape (http://www.inkscape.org/) -->

<svg
   width="50.514732mm"
   height="49.780502mm"
   viewBox="0 0 50.514733 49.780502"
   version="1.1"
   id="svg14118"
   inkscape:version="1.2.2 (b0a8486541, 2022-12-01)"
   sodipodi:docname="Jablonski_lamp.svg"
   inkscape:export-filename="Jablonski_lamp.pdf"
   inkscape:export-xdpi="400"
   inkscape:export-ydpi="400"
   xmlns:inkscape="http://www.inkscape.org/namespaces/inkscape"
   xmlns:sodipodi="http://sodipodi.sourceforge.net/DTD/sodipodi-0.dtd"
   xmlns="http://www.w3.org/2000/svg"
   xmlns:svg="http://www.w3.org/2000/svg">
  <sodipodi:namedview
     id="namedview14120"
     pagecolor="#ffffff"
     bordercolor="#666666"
     borderopacity="1.0"
     inkscape:showpageshadow="2"
     inkscape:pageopacity="0.0"
     inkscape:pagecheckerboard="0"
     inkscape:deskcolor="#d1d1d1"
     inkscape:document-units="mm"
     showgrid="false"
     inkscape:zoom="2.8503026"
     inkscape:cx="67.887529"
     inkscape:cy="136.65216"
     inkscape:window-width="2560"
     inkscape:window-height="1391"
     inkscape:window-x="0"
     inkscape:window-y="25"
     inkscape:window-maximized="1"
     inkscape:current-layer="layer1" />
  <defs
     id="defs14115">
    <rect
       x="518.18835"
       y="361.92184"
       width="53.96664"
       height="18.951283"
       id="rect16845" />
    <marker
       style="overflow:visible"
       id="Arrow5"
       refX="0"
       refY="0"
       orient="auto-start-reverse"
       inkscape:stockid="Arrow5"
       markerWidth="5.8874264"
       markerHeight="6.6094756"
       viewBox="0 0 5.8874262 6.6094758"
       inkscape:isstock="true"
       inkscape:collect="always"
       preserveAspectRatio="xMidYMid">
      <path
         transform="scale(0.5)"
         style="fill:context-stroke;fill-rule:evenodd;stroke:context-stroke;stroke-width:1pt"
         d="m 6,0 c -3,1 -7,3 -9,5 0,0 0,-4 2,-5 -2,-1 -2,-5 -2,-5 2,2 6,4 9,5 z"
         id="path8893" />
    </marker>
    <rect
       x="379.51099"
       y="188.94205"
       width="180.91438"
       height="47.35672"
       id="rect15885" />
    <rect
       x="-39.97813"
       y="-138.87454"
       width="56.765339"
       height="53.393623"
       id="rect506-3" />
  </defs>
  <g
     inkscape:label="Layer 1"
     inkscape:groupmode="layer"
     id="layer1"
     transform="translate(-103.86398,-80.496845)">
    <path
       style="fill:none;stroke:#000097;stroke-width:0.722596;stroke-linecap:butt;stroke-linejoin:miter;stroke-miterlimit:4;stroke-opacity:1"
       d="M 117.26097,130.0967 V 84.438159"
       id="path2664" />
    <path
       style="fill:#000097;fill-opacity:1;fill-rule:nonzero;stroke:none;stroke-width:0.352778"
       d="m 117.26097,82.258102 c 0.38172,1.025261 1.03077,2.29857 1.71841,3.088185 l -1.71841,-0.621495 -1.71704,0.621495 c 0.68765,-0.789615 1.33808,-2.062924 1.71704,-3.088185"
       id="path2666" />
    <path
       style="fill:none;stroke:#232161;stroke-width:0.361298;stroke-linecap:butt;stroke-linejoin:miter;stroke-miterlimit:4;stroke-opacity:1"
       d="m 110.91511,93.067437 h 33.42707"
       id="path2788" />
    <path
       style="fill:none;stroke:#232161;stroke-width:0.361298;stroke-linecap:butt;stroke-linejoin:miter;stroke-miterlimit:4;stroke-opacity:1"
       d="M 110.91511,86.782203 H 144.2595"
       id="path2790" />
    <path
       style="fill:none;stroke:#232161;stroke-width:0.361298;stroke-linecap:butt;stroke-linejoin:miter;stroke-miterlimit:4;stroke-opacity:1"
       d="M 110.91511,83.908994 H 144.2595"
       id="path2792" />
    <path
       style="fill:none;stroke:#232161;stroke-width:0.361298;stroke-linecap:butt;stroke-linejoin:miter;stroke-miterlimit:4;stroke-opacity:1"
       d="M 110.91511,82.258103 H 144.2595"
       id="path2794" />
    <path
       style="fill:none;stroke:#232161;stroke-width:0.361298;stroke-linecap:butt;stroke-linejoin:miter;stroke-miterlimit:4;stroke-opacity:1"
       d="M 110.91511,80.677494 H 144.2595"
       id="path2796" />
    <path
       style="fill:none;stroke:#9c1e61;stroke-width:0.361298;stroke-linecap:butt;stroke-linejoin:miter;stroke-miterlimit:4;stroke-opacity:1"
       d="m 110.91511,130.0967 h 33.42707"
       id="path2798" />
    <path
       style="fill:none;stroke:#9c1e61;stroke-width:0.361298;stroke-linecap:butt;stroke-linejoin:miter;stroke-miterlimit:4;stroke-opacity:1"
       d="M 110.91511,123.81009 H 144.2595"
       id="path2800" />
    <path
       style="fill:none;stroke:#9c1e61;stroke-width:0.361298;stroke-linecap:butt;stroke-linejoin:miter;stroke-miterlimit:4;stroke-opacity:1"
       d="M 110.91511,120.93826 H 144.2595"
       id="path2802" />
    <path
       style="fill:none;stroke:#9c1e61;stroke-width:0.361298;stroke-linecap:butt;stroke-linejoin:miter;stroke-miterlimit:4;stroke-opacity:1"
       d="M 110.91511,119.28736 H 144.2595"
       id="path2804" />
    <path
       style="fill:none;stroke:#9c1e61;stroke-width:0.361298;stroke-linecap:butt;stroke-linejoin:miter;stroke-miterlimit:4;stroke-opacity:1"
       d="M 110.91511,117.70676 H 144.2595"
       id="path2806" />
    <path
       style="fill:none;stroke:#bd1c2b;stroke-width:0.722596;stroke-linecap:butt;stroke-linejoin:miter;stroke-miterlimit:4;stroke-opacity:1"
       d="M 136.15388,93.067437 V 117.10594"
       id="path2808" />
    <path
       style="fill:#bd1c2b;fill-opacity:1;fill-rule:nonzero;stroke:none;stroke-width:0.352778"
       d="m 136.15387,119.28737 c -0.38034,-1.02664 -1.03077,-2.29995 -1.71841,-3.08819 l 1.71841,0.6215 1.71842,-0.6215 c -0.68902,0.78824 -1.33808,2.06155 -1.71842,3.08819"
       id="path2810" />
    <g
       style="fill:#000000;fill-opacity:1"
       id="g2814"
       transform="matrix(0.35277777,0,0,0.35277777,42.769739,32.870594)">
      <g
         id="use2812"
         transform="translate(172.7274,259.18826)">
        <path
           style="stroke:none"
           d="m 0.453125,-0.359375 c 0.390625,0.265625 1.15625,0.46875 1.84375,0.46875 1.71875,0 2.546875,-0.96875 2.546875,-2.09375 0,-1.0625 -0.625,-1.65625 -1.859375,-2.125 -1,-0.390625 -1.4375,-0.71875 -1.4375,-1.390625 0,-0.5 0.375,-1.09375 1.359375,-1.09375 0.65625,0 1.140625,0.21875 1.390625,0.34375 l 0.25,-0.765625 C 4.21875,-7.1875 3.6875,-7.359375 2.953125,-7.359375 c -1.421875,0 -2.34375,0.828125 -2.34375,1.96875 0,1.015625 0.71875,1.625 1.90625,2.046875 C 3.5,-2.96875 3.875,-2.578125 3.875,-1.90625 c 0,0.734375 -0.546875,1.234375 -1.515625,1.234375 -0.640625,0 -1.25,-0.203125 -1.671875,-0.46875 z m 0,0"
           id="path15339" />
      </g>
    </g>
    <g
       style="fill:#000000;fill-opacity:1"
       id="g2818"
       transform="matrix(0.35277777,0,0,0.35277777,42.769739,32.870594)">
      <g
         id="use2816"
         transform="translate(178.02893,259.18826)">
        <path
           style="stroke:none"
           d="m 1.78125,1.640625 c 1.0625,0 1.578125,-0.875 1.578125,-2.1875 0,-1.296875 -0.546875,-2.125 -1.53125,-2.125 C 0.859375,-2.671875 0.25,-1.84375 0.25,-0.5 c 0,1.328125 0.59375,2.140625 1.53125,2.140625 z m 0.015625,-0.5625 C 1.3125,1.078125 1,0.5 1,-0.53125 c 0,-1 0.328125,-1.59375 0.8125,-1.59375 0.53125,0 0.796875,0.59375 0.796875,1.59375 0,1.015625 -0.28125,1.609375 -0.8125,1.609375 z m 0,0"
           id="path15327" />
      </g>
    </g>
    <g
       style="fill:#000000;fill-opacity:1"
       id="g2822"
       transform="matrix(0.35277777,0,0,0.35277777,42.769739,32.870594)">
      <g
         id="use2820"
         transform="translate(172.7274,154.06111)">
        <path
           style="stroke:none"
           d="m 0.453125,-0.359375 c 0.390625,0.265625 1.15625,0.46875 1.84375,0.46875 1.71875,0 2.546875,-0.96875 2.546875,-2.09375 0,-1.0625 -0.625,-1.65625 -1.859375,-2.125 -1,-0.390625 -1.4375,-0.71875 -1.4375,-1.390625 0,-0.5 0.375,-1.09375 1.359375,-1.09375 0.65625,0 1.140625,0.21875 1.390625,0.34375 l 0.25,-0.765625 C 4.21875,-7.1875 3.6875,-7.359375 2.953125,-7.359375 c -1.421875,0 -2.34375,0.828125 -2.34375,1.96875 0,1.015625 0.71875,1.625 1.90625,2.046875 C 3.5,-2.96875 3.875,-2.578125 3.875,-1.90625 c 0,0.734375 -0.546875,1.234375 -1.515625,1.234375 -0.640625,0 -1.25,-0.203125 -1.671875,-0.46875 z m 0,0"
           id="path15343" />
      </g>
    </g>
    <g
       style="fill:#000000;fill-opacity:1"
       id="g2826"
       transform="matrix(0.35277777,0,0,0.35277777,42.769739,32.870594)">
      <g
         id="use2824"
         transform="translate(178.02893,154.06111)">
        <path
           style="stroke:none"
           d="m 1.90625,1.578125 v -4.1875 H 1.25 l -1.015625,0.46875 0.125,0.5625 0.765625,-0.375 h 0.03125 v 3.53125 z m 0,0"
           id="path15319" />
      </g>
    </g>
    <g
       style="fill:#000000;fill-opacity:1"
       id="g2858"
       transform="matrix(0.35277777,0,0,0.35277777,42.769739,32.870594)">
      <g
         id="use2832"
         transform="translate(187.42493,170.97298)">
        <path
           style="stroke:none"
           d="M 0.015625,-0.484375 -4.375,-0.59375 -4.296875,-3.765625 -3.78125,-3.75 -3.84375,-1.15625 -2.5,-1.125 l 0.046875,-2.4375 0.515625,0.015625 -0.046875,2.4375 1.5,0.03125 0.0625,-2.703125 0.515625,0.015625 z m 0,0"
           id="path15051" />
      </g>
      <g
         id="use2834"
         transform="translate(187.52531,166.87553)">
        <path
           style="stroke:none"
           d="M 0,-0.046875 -1.625,-1.25 l -1.5625,1.046875 0.015625,-0.6875 0.765625,-0.46875 c 0.148438,-0.082031 0.265625,-0.148437 0.359375,-0.203125 -0.125,-0.101562 -0.238281,-0.191406 -0.34375,-0.265625 L -3.125,-2.375 l 0.015625,-0.640625 1.46875,1.125 1.71875,-1.140625 -0.015625,0.671875 -1,0.625 -0.28125,0.171875 1.234375,0.859375 z m 0,0"
           id="path15043" />
      </g>
      <g
         id="use2836"
         transform="translate(187.60057,163.804)">
        <path
           style="stroke:none"
           d="m -1.109375,-2.515625 0.09375,-0.53125 c 0.367187,0.074219 0.648437,0.234375 0.84375,0.484375 0.1953125,0.242188 0.296875,0.53125 0.296875,0.875 -0.011719,0.4375 -0.1601562,0.789062 -0.453125,1.046875 -0.300781,0.261719 -0.71875,0.386719 -1.25,0.375 C -1.921875,-0.273438 -2.21875,-0.34375 -2.46875,-0.46875 -2.726562,-0.59375 -2.914062,-0.769531 -3.03125,-1 c -0.125,-0.238281 -0.179688,-0.492188 -0.171875,-0.765625 0,-0.34375 0.09375,-0.625 0.28125,-0.84375 0.179687,-0.21875 0.429687,-0.359375 0.75,-0.421875 l 0.0625,0.546875 c -0.207031,0.042969 -0.367187,0.125 -0.484375,0.25 -0.113281,0.125 -0.171875,0.277344 -0.171875,0.453125 C -2.773438,-1.5 -2.6875,-1.273438 -2.5,-1.109375 c 0.1875,0.167969 0.496094,0.261719 0.921875,0.28125 0.429687,0.011719 0.742187,-0.0625 0.9375,-0.21875 0.199219,-0.164063 0.304687,-0.382813 0.3125,-0.65625 0,-0.207031 -0.0625,-0.378906 -0.1875,-0.515625 -0.125,-0.144531 -0.320313,-0.242188 -0.59375,-0.296875 z m 0,0"
           id="path15035" />
      </g>
      <g
         id="use2838"
         transform="translate(187.67583,160.73247)">
        <path
           style="stroke:none"
           d="M -3.765625,-0.5 -4.375,-0.515625 V -1.0625 l 0.609375,0.015625 z m 3.78125,0.09375 -3.1875,-0.078125 V -1.03125 l 3.1875,0.078125 z m 0,0"
           id="path15027" />
      </g>
      <g
         id="use2840"
         transform="translate(187.70923,159.3687)">
        <path
           style="stroke:none"
           d="m -0.453125,-1.59375 0.5,-0.0625 c 0.0195312,0.148438 0.03125,0.28125 0.03125,0.40625 -0.0117188,0.199219 -0.046875,0.351562 -0.109375,0.453125 -0.0625,0.105469 -0.144531,0.179687 -0.25,0.21875 -0.101562,0.042969 -0.316406,0.0625 -0.640625,0.0625 L -2.75,-0.5625 -2.765625,-0.171875 -3.1875,-0.1875 l 0.015625,-0.390625 -0.78125,-0.015625 -0.3125,-0.5625 1.109375,0.03125 v -0.53125 l 0.421875,0.015625 v 0.53125 L -0.875,-1.0625 c 0.15625,0 0.257812,-0.00391 0.296875,-0.015625 0.042969,-0.019531 0.078125,-0.050781 0.109375,-0.09375 0.023438,-0.039063 0.03125,-0.101563 0.03125,-0.1875 0,-0.0625 -0.003906,-0.140625 -0.015625,-0.234375 z m 0,0"
           id="path15003" />
      </g>
      <g
         id="use2842"
         transform="translate(187.75108,157.66092)">
        <path
           style="stroke:none"
           d="M -0.96875,-2.609375 -0.875,-3.15625 c 0.324219,0.085938 0.574219,0.25 0.75,0.5 0.1757812,0.242188 0.257812,0.546875 0.25,0.921875 -0.011719,0.460937 -0.1601562,0.824219 -0.453125,1.09375 -0.300781,0.273437 -0.710937,0.402344 -1.234375,0.390625 -0.539062,-0.019531 -0.953125,-0.171875 -1.234375,-0.453125 -0.28125,-0.28125 -0.414063,-0.644531 -0.40625,-1.09375 0.011719,-0.414063 0.164063,-0.753906 0.453125,-1.015625 0.292969,-0.269531 0.703125,-0.394531 1.234375,-0.375 0.03125,0 0.078125,0 0.140625,0 l -0.0625,2.375 c 0.355469,-0.007812 0.625,-0.101562 0.8125,-0.28125 0.1875,-0.175781 0.289062,-0.398438 0.296875,-0.671875 0,-0.195313 -0.046875,-0.363281 -0.140625,-0.5 -0.101562,-0.144531 -0.269531,-0.257813 -0.5,-0.34375 z m -0.90625,1.75 0.046875,-1.78125 c -0.269531,0.023437 -0.472656,0.085937 -0.609375,0.1875 -0.21875,0.179687 -0.328125,0.402344 -0.328125,0.671875 -0.00781,0.25 0.070313,0.460938 0.234375,0.625 0.15625,0.167969 0.375,0.265625 0.65625,0.296875 z m 0,0"
           id="path14971" />
      </g>
      <g
         id="use2844"
         transform="translate(187.83476,154.24538)">
        <path
           style="stroke:none"
           d="m 0.0625,-2.46875 -0.40625,-0.015625 c 0.3125,0.210937 0.460938,0.511719 0.453125,0.90625 0,0.25 -0.0742188,0.480469 -0.21875,0.6875 -0.144531,0.210937 -0.34375,0.371094 -0.59375,0.484375 -0.257813,0.117188 -0.554687,0.171875 -0.890625,0.171875 -0.3125,-0.007813 -0.59375,-0.070313 -0.84375,-0.1875 C -2.695312,-0.535156 -2.890625,-0.695312 -3.015625,-0.90625 -3.148438,-1.125 -3.21875,-1.367188 -3.21875,-1.640625 c 0.011719,-0.1875 0.058594,-0.351563 0.140625,-0.5 C -2.992188,-2.296875 -2.882812,-2.414062 -2.75,-2.5 l -1.578125,-0.046875 0.015625,-0.53125 4.390625,0.109375 z m -1.640625,1.671875 c 0.40625,0 0.714844,-0.082031 0.921875,-0.25 0.210938,-0.164063 0.320312,-0.363281 0.328125,-0.59375 0,-0.238281 -0.09375,-0.441406 -0.28125,-0.609375 -0.1875,-0.164062 -0.476563,-0.253906 -0.875,-0.265625 -0.4375,-0.00781 -0.757813,0.070313 -0.96875,0.234375 -0.207031,0.167969 -0.3125,0.371094 -0.3125,0.609375 -0.00781,0.242187 0.085937,0.445313 0.28125,0.609375 0.1875,0.167969 0.492187,0.257812 0.90625,0.265625 z m 0,0"
           id="path14951" />
      </g>
      <g
         id="use2846"
         transform="translate(187.91844,150.82982)">
        <path
           style="stroke:none"
           d=""
           id="path14935" />
      </g>
      <g
         id="use2848"
         transform="translate(187.96028,149.12206)">
        <path
           style="stroke:none"
           d="M -0.953125,-0.203125 -1.015625,-0.75 c 0.210937,-0.019531 0.375,-0.097656 0.5,-0.234375 0.117187,-0.132813 0.171875,-0.328125 0.171875,-0.578125 0.011719,-0.25 -0.03125,-0.429688 -0.125,-0.546875 -0.09375,-0.125 -0.207031,-0.1875 -0.34375,-0.1875 -0.125,-0.00781 -0.226562,0.039063 -0.3125,0.140625 -0.039062,0.074219 -0.101562,0.261719 -0.1875,0.5625 -0.101562,0.398438 -0.191406,0.667969 -0.265625,0.8125 -0.082031,0.148438 -0.191406,0.261719 -0.328125,0.34375 -0.132812,0.074219 -0.28125,0.105469 -0.4375,0.09375 -0.132812,0 -0.257812,-0.03125 -0.375,-0.09375 -0.125,-0.070312 -0.222656,-0.164062 -0.296875,-0.28125 -0.0625,-0.082031 -0.109375,-0.195312 -0.140625,-0.34375 -0.039062,-0.144531 -0.0625,-0.300781 -0.0625,-0.46875 0.011719,-0.25 0.054688,-0.46875 0.125,-0.65625 0.074219,-0.1875 0.171875,-0.320312 0.296875,-0.40625 0.125,-0.082031 0.292969,-0.144531 0.5,-0.1875 L -2.25,-2.25 c -0.15625,0.023438 -0.28125,0.089844 -0.375,0.203125 -0.09375,0.117187 -0.144531,0.28125 -0.15625,0.5 0,0.242187 0.042969,0.417969 0.125,0.53125 0.074219,0.105469 0.164062,0.15625 0.265625,0.15625 0.074219,0 0.136719,-0.015625 0.1875,-0.046875 0.0625,-0.050781 0.121094,-0.125 0.171875,-0.21875 0.023438,-0.050781 0.0625,-0.207031 0.125,-0.46875 0.117188,-0.382812 0.210938,-0.648438 0.28125,-0.796875 0.074219,-0.144531 0.171875,-0.257813 0.296875,-0.34375 0.117187,-0.082031 0.265625,-0.117187 0.453125,-0.109375 0.179688,0 0.351562,0.058594 0.515625,0.171875 0.15625,0.105469 0.2773438,0.257813 0.359375,0.453125 0.0820312,0.199219 0.117188,0.421875 0.109375,0.671875 -0.0117188,0.417969 -0.10546875,0.730469 -0.28125,0.9375 -0.175781,0.210937 -0.4375,0.34375 -0.78125,0.40625 z m 0,0"
           id="path14919" />
      </g>
      <g
         id="use2850"
         transform="translate(188.03554,146.05051)">
        <path
           style="stroke:none"
           d="m -0.453125,-1.59375 0.5,-0.0625 c 0.0195312,0.148438 0.03125,0.28125 0.03125,0.40625 -0.0117188,0.199219 -0.046875,0.351562 -0.109375,0.453125 -0.0625,0.105469 -0.144531,0.179687 -0.25,0.21875 -0.101562,0.042969 -0.316406,0.0625 -0.640625,0.0625 L -2.75,-0.5625 -2.765625,-0.171875 -3.1875,-0.1875 l 0.015625,-0.390625 -0.78125,-0.015625 -0.3125,-0.5625 1.109375,0.03125 v -0.53125 l 0.421875,0.015625 v 0.53125 L -0.875,-1.0625 c 0.15625,0 0.257812,-0.00391 0.296875,-0.015625 0.042969,-0.019531 0.078125,-0.050781 0.109375,-0.09375 0.023438,-0.039063 0.03125,-0.101563 0.03125,-0.1875 0,-0.0625 -0.003906,-0.140625 -0.015625,-0.234375 z m 0,0"
           id="path15007" />
      </g>
      <g
         id="use2852"
         transform="translate(188.07738,144.34273)">
        <path
           style="stroke:none"
           d="m -0.328125,-2.5 c 0.15625,0.210938 0.2734375,0.40625 0.34375,0.59375 0.0703125,0.1875 0.101563,0.386719 0.09375,0.59375 -0.0117188,0.355469 -0.10546875,0.625 -0.28125,0.8125 -0.175781,0.179688 -0.398437,0.265625 -0.671875,0.265625 C -1,-0.242188 -1.132812,-0.285156 -1.25,-0.359375 c -0.125,-0.070313 -0.222656,-0.164063 -0.296875,-0.28125 -0.082031,-0.125 -0.140625,-0.257813 -0.171875,-0.40625 -0.03125,-0.101563 -0.054688,-0.257813 -0.078125,-0.46875 -0.039063,-0.4375 -0.09375,-0.757813 -0.15625,-0.96875 -0.070313,0 -0.117187,0 -0.140625,0 -0.21875,-0.00781 -0.375,0.039063 -0.46875,0.140625 -0.132812,0.136719 -0.203125,0.339844 -0.203125,0.609375 -0.00781,0.25 0.027344,0.4375 0.109375,0.5625 0.085938,0.125 0.242188,0.21875 0.46875,0.28125 L -2.28125,-0.375 c -0.207031,-0.050781 -0.378906,-0.132812 -0.515625,-0.25 -0.144531,-0.113281 -0.25,-0.273438 -0.3125,-0.484375 -0.070313,-0.207031 -0.101563,-0.445313 -0.09375,-0.71875 0,-0.269531 0.039063,-0.488281 0.109375,-0.65625 0.0625,-0.175781 0.148438,-0.300781 0.25,-0.375 0.09375,-0.070313 0.21875,-0.125 0.375,-0.15625 0.09375,-0.019531 0.261719,-0.023437 0.5,-0.015625 L -1.25,-3.015625 c 0.5,0.011719 0.820312,0.011719 0.953125,0 0.125,-0.019531 0.25,-0.066406 0.375,-0.140625 L 0.0625,-2.59375 C -0.0507812,-2.53125 -0.179688,-2.5 -0.328125,-2.5 Z m -1.203125,0.03125 c 0.0625,0.199219 0.121094,0.492188 0.171875,0.875 0.03125,0.230469 0.070313,0.390625 0.109375,0.484375 0.03125,0.085937 0.085938,0.152344 0.15625,0.203125 0.074219,0.054688 0.15625,0.085938 0.25,0.09375 0.148438,0 0.273438,-0.050781 0.375,-0.15625 0.105469,-0.113281 0.15625,-0.273438 0.15625,-0.484375 C -0.300781,-1.660156 -0.335938,-1.84375 -0.421875,-2 c -0.09375,-0.164062 -0.21875,-0.285156 -0.375,-0.359375 -0.125,-0.070313 -0.304687,-0.109375 -0.546875,-0.109375 z m 0,0"
           id="path14903" />
      </g>
      <g
         id="use2854"
         transform="translate(188.16106,140.92719)">
        <path
           style="stroke:none"
           d="m -0.453125,-1.59375 0.5,-0.0625 c 0.0195312,0.148438 0.03125,0.28125 0.03125,0.40625 -0.0117188,0.199219 -0.046875,0.351562 -0.109375,0.453125 -0.0625,0.105469 -0.144531,0.179687 -0.25,0.21875 -0.101562,0.042969 -0.316406,0.0625 -0.640625,0.0625 L -2.75,-0.5625 -2.765625,-0.171875 -3.1875,-0.1875 l 0.015625,-0.390625 -0.78125,-0.015625 -0.3125,-0.5625 1.109375,0.03125 v -0.53125 l 0.421875,0.015625 v 0.53125 L -0.875,-1.0625 c 0.15625,0 0.257812,-0.00391 0.296875,-0.015625 0.042969,-0.019531 0.078125,-0.050781 0.109375,-0.09375 0.023438,-0.039063 0.03125,-0.101563 0.03125,-0.1875 0,-0.0625 -0.003906,-0.140625 -0.015625,-0.234375 z m 0,0"
           id="path15011" />
      </g>
      <g
         id="use2856"
         transform="translate(188.2029,139.21941)">
        <path
           style="stroke:none"
           d="M -0.96875,-2.609375 -0.875,-3.15625 c 0.324219,0.085938 0.574219,0.25 0.75,0.5 0.1757812,0.242188 0.257812,0.546875 0.25,0.921875 -0.011719,0.460937 -0.1601562,0.824219 -0.453125,1.09375 -0.300781,0.273437 -0.710937,0.402344 -1.234375,0.390625 -0.539062,-0.019531 -0.953125,-0.171875 -1.234375,-0.453125 -0.28125,-0.28125 -0.414063,-0.644531 -0.40625,-1.09375 0.011719,-0.414063 0.164063,-0.753906 0.453125,-1.015625 0.292969,-0.269531 0.703125,-0.394531 1.234375,-0.375 0.03125,0 0.078125,0 0.140625,0 l -0.0625,2.375 c 0.355469,-0.007812 0.625,-0.101562 0.8125,-0.28125 0.1875,-0.175781 0.289062,-0.398438 0.296875,-0.671875 0,-0.195313 -0.046875,-0.363281 -0.140625,-0.5 -0.101562,-0.144531 -0.269531,-0.257813 -0.5,-0.34375 z m -0.90625,1.75 0.046875,-1.78125 c -0.269531,0.023437 -0.472656,0.085937 -0.609375,0.1875 -0.21875,0.179687 -0.328125,0.402344 -0.328125,0.671875 -0.00781,0.25 0.070313,0.460938 0.234375,0.625 0.15625,0.167969 0.375,0.265625 0.65625,0.296875 z m 0,0"
           id="path14975" />
      </g>
    </g>
    <g
       style="fill:#000000;fill-opacity:1"
       id="g2884"
       transform="matrix(0.35277777,0,0,0.35277777,42.769739,32.870594)">
      <g
         id="use2860"
         transform="translate(187.42558,275.31433)">
        <path
           style="stroke:none"
           d="M -1.65625,-2.578125 -2.171875,-2.59375 -2.140625,-4.453125 -0.5,-4.40625 c 0.21875,0.292969 0.386719,0.59375 0.5,0.90625 0.101562,0.304688 0.148438,0.609375 0.140625,0.921875 -0.011719,0.4375 -0.1171875,0.835937 -0.3125,1.1875 -0.195313,0.34375 -0.46875,0.605469 -0.8125,0.78125 -0.351563,0.167969 -0.742187,0.246094 -1.171875,0.234375 -0.425781,-0.007812 -0.828125,-0.109375 -1.203125,-0.296875 -0.375,-0.1875 -0.644531,-0.453125 -0.8125,-0.796875 -0.164063,-0.34375 -0.242187,-0.734375 -0.234375,-1.171875 0.011719,-0.3125 0.074219,-0.597656 0.1875,-0.859375 0.105469,-0.257812 0.25,-0.457031 0.4375,-0.59375 0.1875,-0.144531 0.429688,-0.25 0.71875,-0.3125 l 0.140625,0.53125 c -0.226563,0.0625 -0.40625,0.140625 -0.53125,0.234375 -0.132813,0.09375 -0.242187,0.234375 -0.328125,0.421875 -0.082031,0.179688 -0.125,0.375 -0.125,0.59375 -0.00781,0.273438 0.023438,0.507812 0.09375,0.703125 0.074219,0.1875 0.179688,0.34375 0.3125,0.46875 0.136719,0.125 0.28125,0.21875 0.4375,0.28125 0.261719,0.125 0.546875,0.195313 0.859375,0.203125 0.398437,0 0.730469,-0.0625 1,-0.1875 0.273437,-0.125 0.476563,-0.316406 0.609375,-0.578125 0.125,-0.257813 0.195312,-0.535156 0.203125,-0.828125 C -0.378906,-2.8125 -0.414062,-3.054688 -0.5,-3.296875 -0.59375,-3.535156 -0.695312,-3.71875 -0.8125,-3.84375 L -1.625,-3.875 Z m 0,0"
           id="path14891" />
      </g>
      <g
         id="use2862"
         transform="translate(187.54268,270.535)">
        <path
           style="stroke:none"
           d="m 0.015625,-0.40625 -3.1875,-0.078125 V -0.96875 L -2.6875,-0.953125 C -2.90625,-1.085938 -3.046875,-1.207031 -3.109375,-1.3125 -3.179688,-1.414062 -3.21875,-1.53125 -3.21875,-1.65625 c 0.011719,-0.175781 0.074219,-0.359375 0.1875,-0.546875 L -2.53125,-2 c -0.082031,0.125 -0.128906,0.257812 -0.140625,0.390625 0,0.117187 0.039063,0.21875 0.109375,0.3125 0.074219,0.09375 0.171875,0.164063 0.296875,0.203125 0.179687,0.074219 0.382813,0.109375 0.609375,0.109375 L 0.015625,-0.9375 Z m 0,0"
           id="path14883" />
      </g>
      <g
         id="use2864"
         transform="translate(187.59279,268.48935)">
        <path
           style="stroke:none"
           d="M -1.59375,-0.234375 C -2.1875,-0.253906 -2.617188,-0.4375 -2.890625,-0.78125 c -0.21875,-0.269531 -0.320313,-0.601562 -0.3125,-1 0.011719,-0.4375 0.164063,-0.789062 0.453125,-1.0625 0.292969,-0.269531 0.6875,-0.398438 1.1875,-0.390625 0.417969,0.011719 0.742188,0.085937 0.96875,0.21875 0.230469,0.136719 0.40625,0.324219 0.53125,0.5625 0.125,0.230469 0.1875,0.480469 0.1875,0.75 -0.011719,0.449219 -0.1601562,0.808594 -0.453125,1.078125 -0.300781,0.273438 -0.722656,0.402344 -1.265625,0.390625 z m 0.015625,-0.5625 c 0.40625,0 0.714844,-0.082031 0.921875,-0.25 0.210938,-0.175781 0.320312,-0.398437 0.328125,-0.671875 0,-0.257812 -0.097656,-0.476562 -0.296875,-0.65625 -0.195312,-0.1875 -0.503906,-0.285156 -0.921875,-0.296875 -0.394531,0 -0.695313,0.089844 -0.90625,0.265625 -0.207031,0.167969 -0.3125,0.382812 -0.3125,0.640625 -0.00781,0.273437 0.085937,0.5 0.28125,0.6875 0.199219,0.179687 0.5,0.273437 0.90625,0.28125 z m 0,0"
           id="path14875" />
      </g>
      <g
         id="use2866"
         transform="translate(187.67647,265.07382)">
        <path
           style="stroke:none"
           d="M 0.0625,-2.484375 -0.40625,-2.5 c 0.3554688,0.25 0.523438,0.589844 0.515625,1.015625 0,0.1875 -0.0390625,0.367187 -0.109375,0.53125 -0.0820312,0.167969 -0.175781,0.289063 -0.28125,0.359375 -0.113281,0.074219 -0.25,0.125 -0.40625,0.15625 -0.101562,0.023438 -0.273438,0.027344 -0.515625,0.015625 l -1.96875,-0.046875 v -0.546875 l 1.765625,0.046875 c 0.28125,0 0.480469,-0.003906 0.59375,-0.015625 0.136719,-0.03125 0.246094,-0.097656 0.328125,-0.203125 0.085937,-0.113281 0.125,-0.253906 0.125,-0.421875 0.011719,-0.15625 -0.019531,-0.300781 -0.09375,-0.4375 -0.082031,-0.144531 -0.195313,-0.25 -0.34375,-0.3125 -0.144531,-0.070313 -0.351563,-0.109375 -0.625,-0.109375 L -3.125,-2.515625 l 0.015625,-0.53125 3.1875,0.078125 z m 0,0"
           id="path14867" />
      </g>
      <g
         id="use2868"
         transform="translate(187.76016,261.65826)">
        <path
           style="stroke:none"
           d="m 0.015625,-0.40625 -3.1875,-0.078125 V -0.96875 l 0.453125,0.015625 c -0.332031,-0.238281 -0.492188,-0.582031 -0.484375,-1.03125 0,-0.1875 0.039063,-0.359375 0.109375,-0.515625 0.074219,-0.164062 0.167969,-0.285156 0.28125,-0.359375 C -2.695312,-2.941406 -2.5625,-3 -2.40625,-3.03125 -2.300781,-3.050781 -2.125,-3.054688 -1.875,-3.046875 L 0.078125,-3 0.0625,-2.453125 -1.875,-2.5 c -0.21875,-0.00781 -0.378906,0.00781 -0.484375,0.046875 -0.113281,0.042969 -0.203125,0.121094 -0.265625,0.234375 -0.070312,0.105469 -0.109375,0.226562 -0.109375,0.359375 -0.00781,0.242187 0.058594,0.445313 0.203125,0.609375 0.136719,0.167969 0.40625,0.257812 0.8125,0.265625 L 0.015625,-0.9375 Z m 0,0"
           id="path14859" />
      </g>
      <g
         id="use2870"
         transform="translate(187.84384,258.24271)">
        <path
           style="stroke:none"
           d="m 0.0625,-2.46875 -0.40625,-0.015625 c 0.3125,0.210937 0.460938,0.511719 0.453125,0.90625 0,0.25 -0.0742188,0.480469 -0.21875,0.6875 -0.144531,0.210937 -0.34375,0.371094 -0.59375,0.484375 -0.257813,0.117188 -0.554687,0.171875 -0.890625,0.171875 -0.3125,-0.007813 -0.59375,-0.070313 -0.84375,-0.1875 C -2.695312,-0.535156 -2.890625,-0.695312 -3.015625,-0.90625 -3.148438,-1.125 -3.21875,-1.367188 -3.21875,-1.640625 c 0.011719,-0.1875 0.058594,-0.351563 0.140625,-0.5 C -2.992188,-2.296875 -2.882812,-2.414062 -2.75,-2.5 l -1.578125,-0.046875 0.015625,-0.53125 4.390625,0.109375 z m -1.640625,1.671875 c 0.40625,0 0.714844,-0.082031 0.921875,-0.25 0.210938,-0.164063 0.320312,-0.363281 0.328125,-0.59375 0,-0.238281 -0.09375,-0.441406 -0.28125,-0.609375 -0.1875,-0.164062 -0.476563,-0.253906 -0.875,-0.265625 -0.4375,-0.00781 -0.757813,0.070313 -0.96875,0.234375 -0.207031,0.167969 -0.3125,0.371094 -0.3125,0.609375 -0.00781,0.242187 0.085937,0.445313 0.28125,0.609375 0.1875,0.167969 0.492187,0.257812 0.90625,0.265625 z m 0,0"
           id="path14955" />
      </g>
      <g
         id="use2872"
         transform="translate(187.92752,254.82715)">
        <path
           style="stroke:none"
           d=""
           id="path14939" />
      </g>
      <g
         id="use2874"
         transform="translate(187.96936,253.11938)">
        <path
           style="stroke:none"
           d="M -0.953125,-0.203125 -1.015625,-0.75 c 0.210937,-0.019531 0.375,-0.097656 0.5,-0.234375 0.117187,-0.132813 0.171875,-0.328125 0.171875,-0.578125 0.011719,-0.25 -0.03125,-0.429688 -0.125,-0.546875 -0.09375,-0.125 -0.207031,-0.1875 -0.34375,-0.1875 -0.125,-0.00781 -0.226562,0.039063 -0.3125,0.140625 -0.039062,0.074219 -0.101562,0.261719 -0.1875,0.5625 -0.101562,0.398438 -0.191406,0.667969 -0.265625,0.8125 -0.082031,0.148438 -0.191406,0.261719 -0.328125,0.34375 -0.132812,0.074219 -0.28125,0.105469 -0.4375,0.09375 -0.132812,0 -0.257812,-0.03125 -0.375,-0.09375 -0.125,-0.070312 -0.222656,-0.164062 -0.296875,-0.28125 -0.0625,-0.082031 -0.109375,-0.195312 -0.140625,-0.34375 -0.039062,-0.144531 -0.0625,-0.300781 -0.0625,-0.46875 0.011719,-0.25 0.054688,-0.46875 0.125,-0.65625 0.074219,-0.1875 0.171875,-0.320312 0.296875,-0.40625 0.125,-0.082031 0.292969,-0.144531 0.5,-0.1875 L -2.25,-2.25 c -0.15625,0.023438 -0.28125,0.089844 -0.375,0.203125 -0.09375,0.117187 -0.144531,0.28125 -0.15625,0.5 0,0.242187 0.042969,0.417969 0.125,0.53125 0.074219,0.105469 0.164062,0.15625 0.265625,0.15625 0.074219,0 0.136719,-0.015625 0.1875,-0.046875 0.0625,-0.050781 0.121094,-0.125 0.171875,-0.21875 0.023438,-0.050781 0.0625,-0.207031 0.125,-0.46875 0.117188,-0.382812 0.210938,-0.648438 0.28125,-0.796875 0.074219,-0.144531 0.171875,-0.257813 0.296875,-0.34375 0.117187,-0.082031 0.265625,-0.117187 0.453125,-0.109375 0.179688,0 0.351562,0.058594 0.515625,0.171875 0.15625,0.105469 0.2773438,0.257813 0.359375,0.453125 0.0820312,0.199219 0.117188,0.421875 0.109375,0.671875 -0.0117188,0.417969 -0.10546875,0.730469 -0.28125,0.9375 -0.175781,0.210937 -0.4375,0.34375 -0.78125,0.40625 z m 0,0"
           id="path14923" />
      </g>
      <g
         id="use2876"
         transform="translate(188.04462,250.04784)">
        <path
           style="stroke:none"
           d="m -0.453125,-1.59375 0.5,-0.0625 c 0.0195312,0.148438 0.03125,0.28125 0.03125,0.40625 -0.0117188,0.199219 -0.046875,0.351562 -0.109375,0.453125 -0.0625,0.105469 -0.144531,0.179687 -0.25,0.21875 -0.101562,0.042969 -0.316406,0.0625 -0.640625,0.0625 L -2.75,-0.5625 -2.765625,-0.171875 -3.1875,-0.1875 l 0.015625,-0.390625 -0.78125,-0.015625 -0.3125,-0.5625 1.109375,0.03125 v -0.53125 l 0.421875,0.015625 v 0.53125 L -0.875,-1.0625 c 0.15625,0 0.257812,-0.00391 0.296875,-0.015625 0.042969,-0.019531 0.078125,-0.050781 0.109375,-0.09375 0.023438,-0.039063 0.03125,-0.101563 0.03125,-0.1875 0,-0.0625 -0.003906,-0.140625 -0.015625,-0.234375 z m 0,0"
           id="path15015" />
      </g>
      <g
         id="use2878"
         transform="translate(188.08646,248.34007)">
        <path
           style="stroke:none"
           d="m -0.328125,-2.5 c 0.15625,0.210938 0.2734375,0.40625 0.34375,0.59375 0.0703125,0.1875 0.101563,0.386719 0.09375,0.59375 -0.0117188,0.355469 -0.10546875,0.625 -0.28125,0.8125 -0.175781,0.179688 -0.398437,0.265625 -0.671875,0.265625 C -1,-0.242188 -1.132812,-0.285156 -1.25,-0.359375 c -0.125,-0.070313 -0.222656,-0.164063 -0.296875,-0.28125 -0.082031,-0.125 -0.140625,-0.257813 -0.171875,-0.40625 -0.03125,-0.101563 -0.054688,-0.257813 -0.078125,-0.46875 -0.039063,-0.4375 -0.09375,-0.757813 -0.15625,-0.96875 -0.070313,0 -0.117187,0 -0.140625,0 -0.21875,-0.00781 -0.375,0.039063 -0.46875,0.140625 -0.132812,0.136719 -0.203125,0.339844 -0.203125,0.609375 -0.00781,0.25 0.027344,0.4375 0.109375,0.5625 0.085938,0.125 0.242188,0.21875 0.46875,0.28125 L -2.28125,-0.375 c -0.207031,-0.050781 -0.378906,-0.132812 -0.515625,-0.25 -0.144531,-0.113281 -0.25,-0.273438 -0.3125,-0.484375 -0.070313,-0.207031 -0.101563,-0.445313 -0.09375,-0.71875 0,-0.269531 0.039063,-0.488281 0.109375,-0.65625 0.0625,-0.175781 0.148438,-0.300781 0.25,-0.375 0.09375,-0.070313 0.21875,-0.125 0.375,-0.15625 0.09375,-0.019531 0.261719,-0.023437 0.5,-0.015625 L -1.25,-3.015625 c 0.5,0.011719 0.820312,0.011719 0.953125,0 0.125,-0.019531 0.25,-0.066406 0.375,-0.140625 L 0.0625,-2.59375 C -0.0507812,-2.53125 -0.179688,-2.5 -0.328125,-2.5 Z m -1.203125,0.03125 c 0.0625,0.199219 0.121094,0.492188 0.171875,0.875 0.03125,0.230469 0.070313,0.390625 0.109375,0.484375 0.03125,0.085937 0.085938,0.152344 0.15625,0.203125 0.074219,0.054688 0.15625,0.085938 0.25,0.09375 0.148438,0 0.273438,-0.050781 0.375,-0.15625 0.105469,-0.113281 0.15625,-0.273438 0.15625,-0.484375 C -0.300781,-1.660156 -0.335938,-1.84375 -0.421875,-2 c -0.09375,-0.164062 -0.21875,-0.285156 -0.375,-0.359375 -0.125,-0.070313 -0.304687,-0.109375 -0.546875,-0.109375 z m 0,0"
           id="path14907" />
      </g>
      <g
         id="use2880"
         transform="translate(188.17014,244.92451)">
        <path
           style="stroke:none"
           d="m -0.453125,-1.59375 0.5,-0.0625 c 0.0195312,0.148438 0.03125,0.28125 0.03125,0.40625 -0.0117188,0.199219 -0.046875,0.351562 -0.109375,0.453125 -0.0625,0.105469 -0.144531,0.179687 -0.25,0.21875 -0.101562,0.042969 -0.316406,0.0625 -0.640625,0.0625 L -2.75,-0.5625 -2.765625,-0.171875 -3.1875,-0.1875 l 0.015625,-0.390625 -0.78125,-0.015625 -0.3125,-0.5625 1.109375,0.03125 v -0.53125 l 0.421875,0.015625 v 0.53125 L -0.875,-1.0625 c 0.15625,0 0.257812,-0.00391 0.296875,-0.015625 0.042969,-0.019531 0.078125,-0.050781 0.109375,-0.09375 0.023438,-0.039063 0.03125,-0.101563 0.03125,-0.1875 0,-0.0625 -0.003906,-0.140625 -0.015625,-0.234375 z m 0,0"
           id="path15019" />
      </g>
      <g
         id="use2882"
         transform="translate(188.21198,243.21674)">
        <path
           style="stroke:none"
           d="M -0.96875,-2.609375 -0.875,-3.15625 c 0.324219,0.085938 0.574219,0.25 0.75,0.5 0.1757812,0.242188 0.257812,0.546875 0.25,0.921875 -0.011719,0.460937 -0.1601562,0.824219 -0.453125,1.09375 -0.300781,0.273437 -0.710937,0.402344 -1.234375,0.390625 -0.539062,-0.019531 -0.953125,-0.171875 -1.234375,-0.453125 -0.28125,-0.28125 -0.414063,-0.644531 -0.40625,-1.09375 0.011719,-0.414063 0.164063,-0.753906 0.453125,-1.015625 0.292969,-0.269531 0.703125,-0.394531 1.234375,-0.375 0.03125,0 0.078125,0 0.140625,0 l -0.0625,2.375 c 0.355469,-0.007812 0.625,-0.101562 0.8125,-0.28125 0.1875,-0.175781 0.289062,-0.398438 0.296875,-0.671875 0,-0.195313 -0.046875,-0.363281 -0.140625,-0.5 -0.101562,-0.144531 -0.269531,-0.257813 -0.5,-0.34375 z m -0.90625,1.75 0.046875,-1.78125 c -0.269531,0.023437 -0.472656,0.085937 -0.609375,0.1875 -0.21875,0.179687 -0.328125,0.402344 -0.328125,0.671875 -0.00781,0.25 0.070313,0.460938 0.234375,0.625 0.15625,0.167969 0.375,0.265625 0.65625,0.296875 z m 0,0"
           id="path14979" />
      </g>
    </g>
    <path
       style="fill:none;stroke:#6b6e70;stroke-width:0.361298;stroke-linecap:butt;stroke-linejoin:miter;stroke-miterlimit:4;stroke-dasharray:0.180649, 0.180649;stroke-opacity:1"
       d="m 117.92931,82.427601 c 1.35324,0.558105 0.19844,3.361035 1.55167,3.917762 1.35324,0.556728 2.50803,-2.246202 3.86127,-1.689475 1.35323,0.558106 0.19843,3.361035 1.55167,3.917763 1.35323,0.556727 2.50665,-2.246202 3.86126,-1.689475 1.35323,0.558106 0.19844,3.361035 1.55305,3.917763 1.35323,0.558105 2.50665,-2.246203 3.86126,-1.688097 1.35324,0.556727 0.19844,3.361035 1.55305,3.917763"
       id="path2886" />
    <path
       style="fill:none;stroke:#bd1c2b;stroke-width:0.361298;stroke-linecap:butt;stroke-linejoin:miter;stroke-miterlimit:4;stroke-dasharray:none;stroke-opacity:1;marker-end:url(#Arrow5)"
       d="m 137.86665,103.27233 c 0.85437,0.007 0.62399,3.02643 1.47815,3.0325 0.85417,0.006 1.08453,-3.01301 1.93869,-3.00694 0.85437,0.007 0.62398,3.02643 1.47816,3.0325 0.85415,0.006 1.08375,-3.0125 1.93868,-3.00695 0.85438,0.007 0.624,3.02644 1.47894,3.03199 0.85436,0.007 1.08376,-3.0125 1.9389,-3.00566 0.85417,0.006 0.43566,1.96039 2.06879,1.78646"
       id="path2886-3"
       sodipodi:nodetypes="cccccccc" />
    <path
       style="fill:none;stroke:#6b6e70;stroke-width:0.361298;stroke-linecap:butt;stroke-linejoin:miter;stroke-miterlimit:4;stroke-dasharray:0.180649, 0.180649;stroke-opacity:1"
       d="m 134.73725,90.194224 0.12678,0.986675"
       id="path2888" />
    <path
       style="fill:#6b6e70;fill-opacity:1;fill-rule:nonzero;stroke:none;stroke-width:0.352778"
       d="m 135.00321,92.262661 c -0.25356,-0.485069 -0.65732,-1.074871 -1.04869,-1.422135 l 0.8916,0.198437 0.81166,-0.417547 c -0.29077,0.435461 -0.53055,1.107944 -0.65457,1.641245"
       id="path2890" />
    <text
       xml:space="preserve"
       transform="matrix(0.26458333,0,0,0.26458333,5.0359671,54.292679)"
       id="text15883"
       style="font-size:8px;line-height:1.25;font-family:sans-serif;white-space:pre;shape-inside:url(#rect15885);display:inline"><tspan
         x="379.51172"
         y="196.22041"
         id="tspan3421"> Excitation</tspan></text>
    <text
       xml:space="preserve"
       transform="matrix(0.26458333,0,0,0.26458333,-0.13205753,2.1106141)"
       id="text16843"
       style="font-size:8px;line-height:1.05;font-family:sans-serif;white-space:pre;shape-inside:url(#rect16845);display:inline"
       x="16.039991"
       y="0"><tspan
         x="531.5229"
         y="368.40088"
         id="tspan3425"><tspan
           style="text-align:center;text-anchor:middle"
           id="tspan3423">Photon </tspan></tspan><tspan
         x="528.41891"
         y="376.80087"
         id="tspan3429"><tspan
           style="text-align:center;text-anchor:middle"
           id="tspan3427">Emission</tspan></tspan></text>
    <text
       xml:space="preserve"
       transform="matrix(0.26458333,0,0,0.26458333,161.78417,142.03035)"
       id="text504-6"
       style="font-size:10.6667px;line-height:1.25;font-family:sans-serif;white-space:pre;shape-inside:url(#rect506-3);display:inline"><tspan
         x="-39.978516"
         y="-129.16963"
         id="tspan3431">hν</tspan></text>
  </g>
</svg>
