<?xml version="1.0" encoding="UTF-8" standalone="no"?>
<!-- Created with Inkscape (http://www.inkscape.org/) -->

<svg
   width="76.652687mm"
   height="28.235172mm"
   viewBox="0 0 76.652687 28.235172"
   version="1.1"
   id="svg1719"
   inkscape:version="1.2.2 (b0a8486541, 2022-12-01)"
   sodipodi:docname="wave_kids.svg"
   inkscape:export-filename="wave_kids.pdf"
   inkscape:export-xdpi="400"
   inkscape:export-ydpi="400"
   xmlns:inkscape="http://www.inkscape.org/namespaces/inkscape"
   xmlns:sodipodi="http://sodipodi.sourceforge.net/DTD/sodipodi-0.dtd"
   xmlns="http://www.w3.org/2000/svg"
   xmlns:svg="http://www.w3.org/2000/svg">
  <sodipodi:namedview
     id="namedview1721"
     pagecolor="#ffffff"
     bordercolor="#666666"
     borderopacity="1.0"
     inkscape:showpageshadow="2"
     inkscape:pageopacity="0.0"
     inkscape:pagecheckerboard="0"
     inkscape:deskcolor="#d1d1d1"
     inkscape:document-units="mm"
     showgrid="false"
     inkscape:zoom="0.60854865"
     inkscape:cx="296.60735"
     inkscape:cy="-130.63869"
     inkscape:window-width="1920"
     inkscape:window-height="1031"
     inkscape:window-x="0"
     inkscape:window-y="25"
     inkscape:window-maximized="1"
     inkscape:current-layer="layer1" />
  <defs
     id="defs1716" />
  <g
     inkscape:label="Layer 1"
     inkscape:groupmode="layer"
     id="layer1"
     transform="translate(-10.603361,-166.54601)">
    <path
       style="fill:none;stroke:#386bd9;stroke-width:0.950002;stroke-linecap:round;stroke-linejoin:round;stroke-miterlimit:10;stroke-opacity:1"
       d="m 14.990718,188.06367 c -0.184655,0.14331 -0.687642,0.91639 -1.507575,2.31786 -0.463021,0.79237 -0.876431,1.48139 -1.238857,2.06981 -0.362422,0.58842 -0.55535,0.90124 -0.578774,0.93983 l -0.02067,0.0303 0.01101,-0.0234 c 0.02342,-0.0482 0.288011,-0.5829 0.79375,-1.60679"
       id="path712" />
    <path
       style="fill:none;stroke:#386bd9;stroke-width:0.950002;stroke-linecap:round;stroke-linejoin:round;stroke-miterlimit:10;stroke-opacity:1"
       d="m 14.94111,188.17115 c 0.305925,0.42995 0.55535,0.89159 0.748273,1.38493 0.128161,0.32935 0.285257,0.86954 0.47129,1.62058 0.187414,0.75103 0.337619,1.30362 0.450621,1.6564 0.16674,0.51952 0.505739,1.0101 1.014236,1.47312"
       id="path714" />
    <path
       style="fill:none;stroke:#386bd9;stroke-width:0.950002;stroke-linecap:round;stroke-linejoin:round;stroke-miterlimit:10;stroke-opacity:1"
       d="m 15.710056,182.59561 c -0.09095,0.61598 -0.157099,1.28019 -0.199817,1.98988 -0.04134,0.6904 -0.06615,1.58475 -0.07579,2.68305"
       id="path716" />
    <path
       style="fill:none;stroke:#386bd9;stroke-width:0.950002;stroke-linecap:round;stroke-linejoin:round;stroke-miterlimit:10;stroke-opacity:1"
       d="m 15.660445,182.31035 c 0.243914,0.0689 0.440972,0.27285 0.593937,0.61047 0.101974,0.22738 0.24391,0.49885 0.427192,0.81856 0.183279,0.31833 0.537433,0.7841 1.061089,1.39457 0.525032,0.61048 0.909507,1.18098 1.153417,1.71015"
       id="path718" />
    <path
       style="fill:none;stroke:#386bd9;stroke-width:0.950002;stroke-linecap:round;stroke-linejoin:round;stroke-miterlimit:10;stroke-opacity:1"
       d="m 16.080748,182.26074 c 0.08819,-0.19292 0.09922,-0.26734 0.03306,-0.22186 -0.04823,0.0331 -0.168119,0.11575 -0.359667,0.24804 -0.274232,0.18742 -1.320162,1.39872 -3.139176,3.63527"
       id="path720" />
    <path
       style="fill:none;stroke:#386bd9;stroke-width:0.950002;stroke-linecap:round;stroke-linejoin:round;stroke-miterlimit:10;stroke-opacity:1"
       d="m 16.190991,182.2387 c -0.23151,-0.0276 -0.365181,-0.1888 -0.405144,-0.48232 -0.03996,-0.2949 -0.05374,-0.5333 -0.0441,-0.71796 0.01517,-0.27009 0.103353,-0.56224 0.264583,-0.87368"
       id="path722" />
    <path
       style="fill:none;stroke:#386bd9;stroke-width:0.950002;stroke-linecap:round;stroke-linejoin:round;stroke-miterlimit:10;stroke-opacity:1"
       d="m 16.466599,172.69577 c -0.0689,-0.25769 -0.276987,-0.61598 -0.622875,-1.07487 -0.345888,-0.46026 -0.655945,-0.74965 -0.927418,-0.86816 -0.272852,-0.11989 -0.47129,-0.18604 -0.596692,-0.19844 -0.125402,-0.011 -0.268718,0.0317 -0.428572,0.12953 -0.15985,0.0965 -0.337619,0.27837 -0.534677,0.54433 -0.197061,0.26459 -0.38723,0.61599 -0.573264,1.0542 -0.184658,0.43684 -0.327974,0.86265 -0.428572,1.27607 -0.101974,0.41341 -0.172254,0.85851 -0.213596,1.33532 -0.04134,0.47818 -0.06063,0.8847 -0.0565,1.22094 0.0041,0.33624 0.05512,0.63114 0.152961,0.88608 0.09922,0.25493 0.374826,0.70693 0.829578,1.35874 0.453375,0.65182 0.804777,1.07763 1.054202,1.2802 0.248045,0.2012 0.442351,0.33349 0.581533,0.39688 0.140557,0.0634 0.299032,0.10335 0.47818,0.11989 0.180523,0.0152 0.373447,0.008 0.580153,-0.0234 0.205327,-0.0317 0.566374,-0.20119 1.081761,-0.51125 0.515388,-0.31006 0.887455,-0.52641 1.11621,-0.65181 0.230135,-0.12402 0.453376,-0.26872 0.669728,-0.43546 0.217731,-0.16674 0.490583,-0.44649 0.818557,-0.84061 0.327971,-0.39274 0.545702,-0.6835 0.653189,-0.87092 0.108864,-0.18741 0.212217,-0.44235 0.312816,-0.76618 0.100594,-0.32384 0.15296,-0.70418 0.157095,-1.13965 0.0041,-0.43545 -0.104729,-1.00045 -0.327974,-1.69498 -0.224621,-0.69591 -0.416168,-1.17409 -0.577398,-1.43868 -0.16123,-0.2632 -0.333485,-0.46164 -0.514008,-0.59393 -0.181899,-0.13229 -0.498849,-0.2508 -0.950846,-0.35553 -0.451996,-0.10474 -0.979787,-0.16675 -1.580613,-0.18604 -0.602203,-0.0207 -0.981164,0.0551 -1.138259,0.22738"
       id="path724" />
    <path
       style="fill:none;stroke:#386bd9;stroke-width:0.950002;stroke-linecap:round;stroke-linejoin:round;stroke-miterlimit:10;stroke-opacity:1"
       d="m 17.823968,186.20883 c 0.318325,-0.22049 0.677996,-0.3831 1.076247,-0.48507 0.265963,-0.0689 0.454755,-0.1447 0.566374,-0.23014 0.111623,-0.0854 0.187413,-0.16536 0.230135,-0.24115 0.04272,-0.0758 0.07304,-0.12954 0.09095,-0.16123 0.01792,-0.0317 0.0028,-0.0386 -0.0441,-0.0193 -0.04685,0.0179 -0.126781,0.0482 -0.239779,0.0923 -0.111619,0.0441 -0.350023,0.25218 -0.715201,0.62563 -0.363802,0.37345 -0.582912,0.60909 -0.657327,0.70555 -0.07441,0.0978 -0.117133,0.15434 -0.129533,0.17088 -0.01242,0.0166 -0.0028,0.0152 0.0303,-0.003 0.03306,-0.0193 0.146075,-0.0813 0.340378,-0.19017 0.194303,-0.10886 0.494714,-0.32659 0.901238,-0.65457 0.40652,-0.32935 0.695911,-0.55673 0.865406,-0.6835 0.169499,-0.12816 0.260452,-0.19569 0.271477,-0.20396 0.01242,-0.01 0.01101,-0.007 -0.0041,0.007 -0.01379,0.0124 -0.124026,0.11714 -0.329353,0.31282 -0.206703,0.19431 -0.469911,0.41755 -0.790995,0.66835 -0.319705,0.2508 -0.467155,0.35691 -0.442348,0.31695 0.02618,-0.0386 0.09095,-0.13781 0.195679,-0.2949 0.103353,-0.1571 0.308684,-0.34865 0.615985,-0.57326 0.307301,-0.22463 0.519522,-0.36657 0.636655,-0.42582 0.115753,-0.0579 0.187413,-0.0951 0.213596,-0.10749 0.02618,-0.0138 0.0055,0.0152 -0.06339,0.0827 -0.06752,0.0689 -0.254938,0.25908 -0.562239,0.56913 -0.305926,0.31006 -0.719339,0.66836 -1.240236,1.07488 -0.520898,0.4079 -0.840603,0.65181 -0.960494,0.73449 -0.121268,0.0827 -0.184655,0.12678 -0.192924,0.13229 l -0.0014,0.001 0.05512,-0.0372 c 0.04272,-0.0303 0.414789,-0.28387 1.114834,-0.76343 0.700045,-0.47956 1.296733,-0.91915 1.788696,-1.3174 0.491959,-0.39826 0.79926,-0.68765 0.921907,-0.86955 0.124023,-0.18052 0.09922,-0.26872 -0.07166,-0.2632 -0.172254,0.005 -0.527787,0.18466 -1.067978,0.53743 -0.54157,0.35416 -0.974273,0.67249 -1.300868,0.95498 -0.326598,0.2825 -0.560864,0.51815 -0.70418,0.70694 -0.143316,0.19017 -0.15434,0.29077 -0.03168,0.30317 0.122643,0.0138 0.325215,-0.0358 0.609092,-0.14883 0.282497,-0.113 0.614606,-0.28663 0.993567,-0.5209 0.380336,-0.23427 0.749652,-0.4892 1.107944,-0.76619 0.358288,-0.27699 0.673859,-0.55121 0.946711,-0.82269 0.272853,-0.27147 0.384475,-0.39825 0.333488,-0.37758 -0.04961,0.0193 -0.175013,0.0703 -0.37483,0.14883 -0.199813,0.0799 -0.724849,0.39136 -1.57372,0.93431 -0.850248,0.54156 -1.584745,1.01148 -2.207617,1.40697 -0.621495,0.3955 -0.854385,0.62426 -0.69729,0.68627 0.157099,0.062 0.372072,0.0358 0.642169,-0.0813 0.270094,-0.11714 0.677993,-0.32522 1.220942,-0.62288 0.544326,-0.29904 1.044554,-0.59393 1.502061,-0.88746 0.457511,-0.29352 0.888838,-0.61185 1.295358,-0.95636 0.405144,-0.34313 0.613226,-0.56224 0.62563,-0.65732 0.01101,-0.0951 -0.06201,-0.1447 -0.217731,-0.14883 -0.157095,-0.004 -0.420303,0.0455 -0.789615,0.15158 -0.369316,0.10612 -0.764812,0.27975 -1.185115,0.52091 -0.421679,0.23977 -0.815798,0.48369 -1.18098,0.73173 -0.366557,0.24805 -0.669727,0.46991 -0.912262,0.66284 -0.242535,0.1943 -0.388606,0.31006 -0.436838,0.35002 -0.04823,0.0386 -0.06063,0.0551 -0.03447,0.0496 0.0248,-0.004 0.101977,-0.0193 0.228755,-0.0455 0.128157,-0.0248 0.559485,-0.2012 1.296737,-0.53055 0.737249,-0.32935 1.317403,-0.6022 1.740461,-0.81855 0.421682,-0.21636 0.610471,-0.32798 0.566374,-0.33487 -0.0441,-0.007 -0.152961,-0.0234 -0.32935,-0.051 -0.176389,-0.0276 -0.46991,0.0634 -0.881944,0.2701 -0.617361,0.30868 -1.229212,0.64079 -1.835549,0.99494"
       id="path726" />
    <path
       style="fill:none;stroke:#386bd9;stroke-width:0.950002;stroke-linecap:round;stroke-linejoin:round;stroke-miterlimit:10;stroke-opacity:1"
       d="m 82.039216,169.54971 c -0.234269,-0.64492 -0.434082,-1.08038 -0.598071,-1.30638 -0.112998,-0.15572 -0.24529,-0.26734 -0.395496,-0.33349 -0.150205,-0.0661 -0.312815,-0.0978 -0.485069,-0.0937 -0.172254,0.003 -0.383096,0.13918 -0.629765,0.41065 -0.248049,0.27148 -0.47818,0.64355 -0.691776,1.11346 -0.212217,0.47129 -0.374826,1.00597 -0.486449,1.60541 -0.112998,0.59945 -0.177764,1.1865 -0.197058,1.76389 -0.01792,0.5774 0.03858,1.06385 0.170875,1.46072 0.132292,0.3955 0.429951,0.80202 0.892972,1.21819 0.463021,0.41479 1.03215,0.70143 1.708768,0.8599 0.676617,0.1571 1.176845,0.24391 1.500685,0.26045 0.323839,0.0152 0.636654,-0.0276 0.938445,-0.12816 0.300411,-0.1006 0.627006,-0.2825 0.977028,-0.54433 0.350023,-0.26182 0.587044,-0.45613 0.712446,-0.58015 0.125402,-0.1254 0.314194,-0.52779 0.563619,-1.20578 0.250804,-0.67938 0.372071,-1.32292 0.366557,-1.93339 -0.0055,-0.61047 -0.07855,-1.10657 -0.219107,-1.48691 -0.140561,-0.38033 -0.31557,-0.73725 -0.525032,-1.07211 -0.210841,-0.33486 -0.458886,-0.66697 -0.742763,-0.99632 -0.285256,-0.32936 -0.869544,-0.72899 -1.752868,-1.19752 -1.256771,-0.66835 -2.345422,-0.33762 -3.264574,0.99081"
       id="path728" />
    <path
       style="fill:none;stroke:#386bd9;stroke-width:0.950002;stroke-linecap:round;stroke-linejoin:round;stroke-miterlimit:10;stroke-opacity:1"
       d="m 82.491213,176.80922 c -0.07442,0.81304 -0.14883,1.62609 -0.223242,2.44051"
       id="path730" />
    <path
       style="fill:none;stroke:#386bd9;stroke-width:0.950002;stroke-linecap:round;stroke-linejoin:round;stroke-miterlimit:10;stroke-opacity:1"
       d="m 81.062184,179.96631 c -0.01517,0.28525 -0.184655,0.69177 -0.505739,1.21543 -0.32246,0.52503 -0.712445,1.12448 -1.171335,1.79558 -0.457507,0.67249 -0.909503,1.18098 -1.355989,1.52687"
       id="path732" />
    <path
       style="fill:none;stroke:#386bd9;stroke-width:0.950002;stroke-linecap:round;stroke-linejoin:round;stroke-miterlimit:10;stroke-opacity:1"
       d="m 81.147623,180.26259 c 0.283877,0.18741 0.500229,0.44235 0.650434,0.76619 0.150206,0.32246 0.381716,0.69177 0.694531,1.10794 0.314195,0.41479 0.63252,0.74001 0.957739,0.97152 0.325219,0.23151 0.598068,0.38309 0.821313,0.45337 0.319705,0.10198 1.156172,0.26596 2.509407,0.49334"
       id="path734" />
    <path
       style="fill:none;stroke:#386bd9;stroke-width:0.950002;stroke-linecap:round;stroke-linejoin:round;stroke-miterlimit:10;stroke-opacity:1"
       d="m 81.623048,182.50466 c -0.281122,0.83371 -0.340378,2.12631 -0.177769,3.8778"
       id="path736" />
    <path
       style="fill:none;stroke:#386bd9;stroke-width:0.950002;stroke-linecap:round;stroke-linejoin:round;stroke-miterlimit:10;stroke-opacity:1"
       d="m 80.985014,186.18953 c -0.129533,0.41342 -0.308681,0.8723 -0.537436,1.37529 -0.228752,0.50436 -0.469911,0.97427 -0.724845,1.41386 -0.391365,0.67249 -0.742763,1.02251 -1.054203,1.05007"
       id="path738" />
    <path
       style="fill:none;stroke:#386bd9;stroke-width:0.950002;stroke-linecap:round;stroke-linejoin:round;stroke-miterlimit:10;stroke-opacity:1"
       d="m 81.510049,187.36913 c 0.454752,-0.24115 0.853007,-0.0496 1.196136,0.57465 0.241159,0.43959 0.520901,0.93155 0.839226,1.4745 0.47267,0.80753 1.113455,1.49931 1.920988,2.07671"
       id="path740" />
    <path
       style="fill:none;stroke:#386bd9;stroke-width:0.950002;stroke-linecap:round;stroke-linejoin:round;stroke-miterlimit:10;stroke-opacity:1"
       d="m 15.399996,174.42935 c -0.243914,0.14745 -0.341753,0.21773 -0.294901,0.21084 0.04823,-0.007 0.199817,-0.0289 0.453376,-0.0661"
       id="path742" />
    <path
       style="fill:none;stroke:#386bd9;stroke-width:0.950002;stroke-linecap:round;stroke-linejoin:round;stroke-miterlimit:10;stroke-opacity:1"
       d="m 16.742206,174.40041 c -0.0083,0.0813 -0.01792,0.16398 -0.02618,0.24529"
       id="path744" />
    <path
       style="fill:none;stroke:#386bd9;stroke-width:0.950002;stroke-linecap:round;stroke-linejoin:round;stroke-miterlimit:10;stroke-opacity:1"
       d="m 15.069267,176.97872 c -0.101974,0.1819 -0.04685,0.42306 0.166744,0.72347 0.144692,0.20257 0.286632,0.33348 0.424434,0.38998 0.137806,0.0579 0.38723,-0.14331 0.745522,-0.6022 0.618737,-0.79375 0.999077,-1.26228 1.139638,-1.4056"
       id="path746" />
    <path
       style="fill:none;stroke:#386bd9;stroke-width:0.950002;stroke-linecap:round;stroke-linejoin:round;stroke-miterlimit:10;stroke-opacity:1"
       d="m 80.407615,171.35356 c 0.129537,0.0634 0.257694,0.12816 0.38723,0.19293"
       id="path748" />
    <path
       style="fill:none;stroke:#386bd9;stroke-width:0.950002;stroke-linecap:round;stroke-linejoin:round;stroke-miterlimit:10;stroke-opacity:1"
       d="m 82.405773,170.88779 c 0.183279,0.0372 0.367937,0.073 0.551216,0.11024"
       id="path750" />
    <path
       style="fill:none;stroke:#386bd9;stroke-width:0.950002;stroke-linecap:round;stroke-linejoin:round;stroke-miterlimit:10;stroke-opacity:1"
       d="m 80.794845,173.76789 c 0.01655,-0.16675 0.0248,-0.25218 0.0248,-0.25907 0.0014,-0.006 0.0014,-10e-4 0.0028,0.0124 0,0.0138 0.0083,0.13643 0.02342,0.36794 0.01379,0.23289 0.07855,0.49609 0.192927,0.79237 0.114378,0.2949 0.219107,0.48231 0.314191,0.56224 0.09508,0.0786 0.228756,0.13092 0.40101,0.1571 0.170878,0.0248 0.354157,-0.04 0.547084,-0.19706 0.192924,-0.15572 0.405141,-0.37758 0.636651,-0.6656 0.340378,-0.42167 0.733118,-0.97702 1.179604,-1.66605"
       id="path752" />
    <path
       style="fill:none;stroke:#733f00;stroke-width:0.950002;stroke-linecap:round;stroke-linejoin:round;stroke-miterlimit:10;stroke-opacity:1"
       d="m 11.873594,171.67878 c 0.179145,0.38861 0.311436,0.62977 0.396875,0.72485 0.05926,0.0648 0.08406,0.0661 0.07442,0.001 -0.0083,-0.0648 -0.03168,-0.22462 -0.0689,-0.48231 -0.03859,-0.25632 -0.118512,-0.53193 -0.242538,-0.82545 -0.122643,-0.2949 -0.221862,-0.47542 -0.294897,-0.54432 -0.07304,-0.0689 -0.110243,-0.0193 -0.110243,0.14883 -0.0014,0.16674 0.0303,0.36104 0.09508,0.57877 0.06477,0.21911 0.144692,0.43408 0.241155,0.6463 0.09784,0.21222 0.195682,0.36105 0.293522,0.44649 0.09784,0.0868 0.14883,-0.28388 0.15434,-1.1107 0.0041,-0.82683 -0.0014,-1.3684 -0.01655,-1.62333 -0.01655,-0.25632 -0.02342,-0.39137 -0.0248,-0.40514 l -0.0014,-0.011 v 0.007 c 0,0.0124 0,0.12402 -0.0014,0.33762 -0.0014,0.21221 0.02342,0.40239 0.07166,0.57188 0.04961,0.16812 0.118512,0.28939 0.208082,0.36243 0.08957,0.073 0.197062,-0.19706 0.319705,-0.81167 0.124026,-0.61323 0.190172,-0.94396 0.199817,-0.98943 0.0096,-0.0455 0.01379,-0.0524 0.01379,-0.0207 0,0.0331 0.0014,0.26458 0.0014,0.69866 0.0014,0.43271 0.04685,0.65182 0.136426,0.65871 0.08957,0.007 0.180524,-0.12265 0.272853,-0.38723 0.09233,-0.26596 0.172254,-0.54157 0.239776,-0.83096 0.06615,-0.28801 0.103353,-0.44511 0.108867,-0.46853 0.0041,-0.0234 0.0083,-0.008 0.0083,0.0441 0,0.0537 0,0.40376 0.0014,1.05144 0.0014,0.64768 0.06615,0.89435 0.194303,0.73863 0.129536,-0.15434 0.275611,-0.49058 0.439596,-1.00597 0.16261,-0.51539 0.260449,-0.84887 0.290767,-1.00046 0.03168,-0.1502 0.04961,-0.23151 0.05099,-0.24253 0.0028,-0.011 0.0041,-10e-4 0.0041,0.0289 0,0.0317 0,0.25769 0.0014,0.67937 0.0014,0.42306 0.05925,0.63527 0.172255,0.63803 0.114377,0.003 0.234265,-0.13505 0.359667,-0.41616 0.126778,-0.28113 0.208083,-0.44649 0.243914,-0.4961 0.03583,-0.051 0.06063,-0.0854 0.07579,-0.10611 0.01517,-0.0207 0.02342,0.0289 0.02342,0.14745 0,0.11989 0.0014,0.32384 0.0028,0.61185 0.0014,0.28801 0.06063,0.48369 0.176389,0.58704 0.114377,0.10198 0.234265,0.051 0.356912,-0.15434 0.122643,-0.2067 0.199813,-0.33348 0.230131,-0.38447 0.0303,-0.0496 0.04272,-0.0276 0.03859,0.0689 -0.0041,0.0965 -0.01517,0.34176 -0.03306,0.73588 -0.01655,0.39412 -0.0083,0.57188 0.02755,0.53192 0.03583,-0.0413 0.124023,-0.14194 0.265963,-0.30317 0.141937,-0.16123 0.268718,-0.34864 0.380337,-0.56224 0.111622,-0.21222 0.169499,-0.29214 0.175013,-0.23978 0.0069,0.0537 0.02205,0.18742 0.04547,0.39963 0.02342,0.2136 0.09371,0.32798 0.209465,0.34314 0.114374,0.0152 0.276984,-0.0606 0.486446,-0.22738 0.208086,-0.16674 0.38034,-0.16261 0.516766,0.011 0.136426,0.17363 0.256314,0.36931 0.361047,0.58842 0.10335,0.21911 0.201193,0.33348 0.292142,0.34451 0.09095,0.011 0.16812,-0.0221 0.231511,-0.1006 0.06477,-0.0772 0.110243,-0.13091 0.136426,-0.16261 0.02618,-0.0317 0.03859,-0.0275 0.03859,0.011 0.0014,0.0386 0.0014,0.10611 0.0014,0.20257 0.0014,0.0951 0.03168,0.2136 0.09095,0.35554 0.08544,0.20257 0.350019,0.36931 0.795126,0.49609"
       id="path754" />
    <path
       style="fill:none;stroke:#733f00;stroke-width:0.950002;stroke-linecap:round;stroke-linejoin:round;stroke-miterlimit:10;stroke-opacity:1"
       d="m 11.841901,172.58553 c 0.175009,-0.34589 0.276983,-0.5457 0.303167,-0.59669 0.01792,-0.0358 0.02618,-0.0303 0.0248,0.0179 -0.0014,0.0468 -0.0041,0.19155 -0.01101,0.42995 -0.0069,0.23978 -0.05236,0.59531 -0.136423,1.0666 -0.08544,0.47129 -0.148829,0.95361 -0.191547,1.44557 -0.0441,0.49195 -0.0193,0.76067 0.07579,0.80752 0.0937,0.0469 0.148827,-0.051 0.16261,-0.28938 l 0.01379,-0.25908 -0.0055,0.0386 c -0.0083,0.0937 -0.03172,0.3266 -0.06752,0.70004 -0.03583,0.37345 -0.07442,0.65044 -0.114378,0.82958 -0.04134,0.17915 -0.06339,0.27975 -0.06752,0.29904 -0.0041,0.0193 -0.0069,-0.0165 -0.0083,-0.10749 -0.0014,-0.091 -0.0055,-0.55673 -0.01517,-1.39733 -0.0096,-0.8406 -0.02205,-1.35461 -0.03859,-1.54203 -0.01517,-0.18879 -0.08957,-0.43546 -0.224621,-0.74414 -0.135047,-0.3073 -0.220486,-0.54019 -0.256314,-0.69591 -0.03721,-0.15709 -0.05788,-0.24666 -0.06339,-0.26734 -0.0041,-0.0207 -0.0096,-0.006 -0.01379,0.0455 -0.0055,0.051 -0.02755,0.26872 -0.06753,0.65319 -0.03858,0.38585 -0.05926,0.78135 -0.06201,1.18649 -0.0028,0.40515 0.06477,0.76895 0.199817,1.09141 0.135047,0.32108 0.25218,0.37207 0.351399,0.1502 0.09784,-0.22048 0.176388,-0.42443 0.232889,-0.60909 0.0565,-0.18604 0.0882,-0.28939 0.09508,-0.31006 0.0055,-0.0207 0.0096,-0.0138 0.0083,0.0234 0,0.0372 -0.0014,0.21635 -0.0055,0.53881 -0.0041,0.48645 -0.114377,0.83922 -0.330729,1.05696"
       id="path756" />
    <path
       style="fill:none;stroke:#733f00;stroke-width:0.950002;stroke-linecap:round;stroke-linejoin:round;stroke-miterlimit:10;stroke-opacity:1"
       d="m 20.31684,170.39858 c -0.03858,0.77446 -0.01379,1.29122 0.07304,1.54892 0.05926,0.17914 0.187413,0.008 0.383095,-0.50987 0.194303,-0.51953 0.304546,-0.81305 0.330729,-0.88057 0.0248,-0.0675 0.03721,-0.0854 0.03859,-0.0551 0,0.0317 0,0.16674 0,0.40376 0,0.2384 -0.0248,0.70418 -0.07717,1.39733 -0.05099,0.69316 -0.07855,1.05833 -0.08131,1.0983 -0.0028,0.0386 -0.0028,0.0537 0,0.0441 0.0028,-0.008 0.02755,-0.0923 0.07579,-0.25219 0.04823,-0.15847 0.06615,-0.28387 0.05512,-0.3762 -0.01242,-0.0923 -0.02755,-0.11851 -0.04685,-0.0758 -0.0193,0.0413 -0.0689,0.14469 -0.146071,0.31281 -0.111622,0.2384 -0.08957,0.76206 0.06615,1.56821"
       id="path758" />
    <path
       style="fill:none;stroke:#733f00;stroke-width:0.950002;stroke-linecap:round;stroke-linejoin:round;stroke-miterlimit:10;stroke-opacity:1"
       d="m 13.434911,171.4955 c 0,0.2577 0,0.39274 0,0.40515 0,0.01 0.0055,-0.006 0.0193,-0.0441 0.01242,-0.0386 0.09922,-0.30731 0.261828,-0.80478 0.16261,-0.49747 0.253559,-0.77583 0.272853,-0.83647 0.02067,-0.0606 0.02755,-0.0744 0.02067,-0.0427 -0.0069,0.033 -0.03996,0.17914 -0.09509,0.44097 -0.0565,0.26182 -0.08819,0.40514 -0.09233,0.42857 -0.0055,0.0234 -0.0041,0.0303 0.0028,0.0207 0.0083,-0.011 0.05788,-0.0786 0.151585,-0.20533 0.09371,-0.1254 0.256314,-0.28801 0.490583,-0.48644 0.234266,-0.19844 0.412034,-0.33073 0.530546,-0.39688 0.119888,-0.0648 0.16674,0.16674 0.141937,0.69729 -0.02618,0.52916 0.0248,0.7841 0.150205,0.76205 0.126782,-0.0207 0.294901,-0.19568 0.504363,-0.52641 0.210841,-0.32935 0.305926,-0.47267 0.288011,-0.42857 -0.0193,0.0441 -0.06615,0.15434 -0.14194,0.32935 -0.07579,0.17501 -0.119888,0.30455 -0.133667,0.38585 -0.01379,0.0799 0.05374,0.13092 0.201193,0.15297 0.146071,0.0207 0.289387,0.011 0.428568,-0.0289 0.137806,-0.0413 0.330729,-0.16537 0.574643,-0.37345 0.24529,-0.20671 0.424438,-0.34175 0.537436,-0.40377 0.112998,-0.0606 0.243914,-0.0468 0.392741,0.0427 0.148829,0.0882 0.281121,0.13919 0.396875,0.14883 0.115756,0.011 0.22462,0.0538 0.326594,0.12954 0.101978,0.0744 0.206707,0.21497 0.312815,0.42168 0.147451,0.28663 0.351402,0.15296 0.614606,-0.40101"
       id="path760" />
    <path
       style="fill:none;stroke:#733f00;stroke-width:0.950002;stroke-linecap:round;stroke-linejoin:round;stroke-miterlimit:10;stroke-opacity:1"
       d="m 16.907571,170.77754 c 0.0083,0.57051 0.24529,0.71107 0.713825,0.42031 0.341753,-0.21222 0.540191,-0.25632 0.595312,-0.13505 0.05512,0.12126 0.07441,0.33624 0.05788,0.6463 -0.01654,0.30868 0.02893,0.49196 0.137805,0.54708 0.107488,0.0551 0.213597,-0.004 0.319705,-0.17639 0.14883,-0.24391 0.654569,-0.19017 1.51722,0.16261"
       id="path762" />
    <path
       style="fill:none;stroke:#ffe685;stroke-width:0.950002;stroke-linecap:round;stroke-linejoin:round;stroke-miterlimit:10;stroke-opacity:1"
       d="m 77.943681,172.25618 c 0,0.29628 0.05375,0.68626 0.158475,1.16995 0.106109,0.48369 0.175013,0.85715 0.205327,1.11897 0.03171,0.26045 0.0565,0.36105 0.07442,0.30041 0.01792,-0.0606 0.06201,-0.21221 0.133671,-0.45613 0.07166,-0.24391 0.110243,-0.56637 0.112999,-0.96876 0.0041,-0.40101 0.0069,-0.62149 0.0069,-0.6587 0,-0.0372 -0.0041,-0.0331 -0.01379,0.0138 -0.0096,0.0469 -0.06752,0.32108 -0.172254,0.82131 -0.104733,0.50023 -0.173634,0.89986 -0.203952,1.19889 -0.0303,0.29766 -0.04685,0.45476 -0.04823,0.47267 l -0.0028,0.011 0.0014,-0.0165 c 0.0014,-0.0207 0.01238,-0.21084 0.03443,-0.57051 0.02205,-0.35967 0.05099,-0.69316 0.08682,-0.9977 0.03583,-0.30593 0.06477,-0.82958 0.08406,-1.57372 0.02067,-0.74414 0.03168,-1.13551 0.03305,-1.17547 l -0.0014,-0.0262 -0.0041,0.0372 c -0.0041,0.0469 -0.04547,0.51125 -0.125399,1.39458 -0.07993,0.88194 -0.130915,1.53513 -0.15434,1.95819 -0.02205,0.42306 -0.03447,0.90124 -0.03721,1.43454 -0.0028,0.53192 0.01517,1.01699 0.05236,1.45245 0.03721,0.43546 0.06201,0.62288 0.07441,0.56362 0.01242,-0.0606 0.04272,-0.21222 0.09233,-0.45475 0.04823,-0.24116 0.08682,-0.56362 0.115757,-0.96739 0.02893,-0.40514 0.03996,-0.91915 0.03447,-1.5434 -0.0055,-0.62425 -0.03447,-1.04593 -0.08682,-1.26642 -0.07579,-0.32521 -0.217731,-0.51814 -0.421683,-0.5774"
       id="path764" />
    <path
       style="fill:none;stroke:#ffe685;stroke-width:0.950002;stroke-linecap:round;stroke-linejoin:round;stroke-miterlimit:10;stroke-opacity:1"
       d="m 81.036001,167.45922 c 0,-0.11024 0,-0.1695 0,-0.17501 0,-0.006 -0.0014,0 -0.0041,0.0138 -0.0041,0.0138 -0.0248,0.10611 -0.06202,0.27561 -0.03858,0.16949 -0.124022,0.36656 -0.25769,0.59393 -0.133671,0.22738 -0.338998,0.48094 -0.61874,0.76343 -0.416168,0.42168 -0.881944,0.70694 -1.395956,0.85577"
       id="path766" />
    <path
       style="fill:none;stroke:#ffe685;stroke-width:0.950002;stroke-linecap:round;stroke-linejoin:round;stroke-miterlimit:10;stroke-opacity:1"
       d="m 81.777388,167.27181 c -0.32246,0.15434 -0.660083,0.3831 -1.015615,0.68764 -0.514008,0.4396 -1.389063,1.33395 -2.62792,2.68305"
       id="path768" />
    <path
       style="fill:none;stroke:#ffe685;stroke-width:0.950002;stroke-linecap:round;stroke-linejoin:round;stroke-miterlimit:10;stroke-opacity:1"
       d="m 82.37959,167.02101 c 0.01517,0.41616 0.143316,0.85438 0.384475,1.31603 0.241155,0.46026 0.458886,0.82131 0.653189,1.08313 0.195683,0.26183 0.372071,0.45062 0.531922,0.56913 0.227376,0.16813 0.706935,0.17088 1.435919,0.007"
       id="path770" />
    <path
       style="fill:none;stroke:#ffe685;stroke-width:0.950002;stroke-linecap:round;stroke-linejoin:round;stroke-miterlimit:10;stroke-opacity:1"
       d="m 84.034615,167.85472 c -0.07579,0.47267 -0.0096,0.88884 0.197062,1.24575 0.140557,0.24253 0.312812,0.46164 0.515384,0.6587 0.202572,0.19706 0.475424,0.38585 0.818557,0.56638 0.341753,0.18052 0.617361,0.24391 0.822688,0.19292"
       id="path772" />
    <path
       style="fill:none;stroke:#ffe685;stroke-width:0.950002;stroke-linecap:round;stroke-linejoin:round;stroke-miterlimit:10;stroke-opacity:1"
       d="m 84.51555,167.1974 c -0.150205,0.40238 -0.183278,0.7152 -0.101974,0.9412 0.05512,0.15434 0.282498,0.46578 0.677997,0.93569 0.668348,0.79099 1.112075,1.24988 1.331186,1.37528"
       id="path774" />
    <path
       style="fill:none;stroke:#ffe685;stroke-width:0.950002;stroke-linecap:round;stroke-linejoin:round;stroke-miterlimit:10;stroke-opacity:1"
       d="m 86.122344,172.72747 c 0.03583,1.47312 0.180523,2.42673 0.432706,2.86081"
       id="path776" />
    <path
       style="fill:none;stroke:#ffe685;stroke-width:0.950002;stroke-linecap:round;stroke-linejoin:round;stroke-miterlimit:10;stroke-opacity:1"
       d="m 86.165065,174.21575 c -0.261828,1.03628 -0.297656,1.94441 -0.107488,2.72576"
       id="path778" />
    <path
       style="fill:none;stroke:#ffe685;stroke-width:0.950002;stroke-linecap:round;stroke-linejoin:round;stroke-miterlimit:10;stroke-opacity:1"
       d="m 86.187114,177.02833 c 0.01655,0.68626 0.03447,1.37253 0.05099,2.05879"
       id="path780" />
    <path
       style="fill:none;stroke:#007354;stroke-width:0.950002;stroke-linecap:round;stroke-linejoin:round;stroke-miterlimit:10;stroke-opacity:1"
       d="m 22.159278,184.74397 c 0.01792,-0.23427 0.190169,-0.4203 0.518143,-0.55673 0.327974,-0.1378 0.69591,-0.33211 1.10381,-0.58566 0.409278,-0.25219 0.807533,-0.54433 1.197514,-0.87506 0.389986,-0.33073 0.724849,-0.5898 1.00735,-0.77583 0.281118,-0.18604 0.559481,-0.33487 0.832333,-0.44787 0.272853,-0.113 0.56224,-0.25769 0.870921,-0.43684 0.30868,-0.17776 0.587046,-0.32384 0.83785,-0.43821 0.250801,-0.11438 0.57464,-0.23565 0.972894,-0.36105 0.398255,-0.12678 0.766191,-0.26321 1.102431,-0.40928 0.336243,-0.14469 0.785484,-0.27974 1.344969,-0.40239 0.56086,-0.12264 1.036284,-0.22737 1.42627,-0.31143 0.389985,-0.0854 0.919152,-0.12816 1.583365,-0.13091 0.665593,-0.001 1.200273,0.0455 1.602659,0.14193 0.402389,0.0965 0.85852,0.27561 1.368393,0.53744 0.509877,0.26045 1.030774,0.5209 1.56132,0.77721 0.529167,0.2577 0.916397,0.49472 1.158932,0.71245 0.241155,0.21773 0.547081,0.44235 0.915017,0.67662 0.369313,0.23426 0.755163,0.50573 1.160307,0.81304 0.405145,0.30868 0.713825,0.5581 0.926042,0.74965 0.212221,0.19155 0.556729,0.38447 1.03353,0.5774 0.475424,0.1943 0.833716,0.34589 1.072116,0.45475 0.237021,0.11025 0.700045,0.23014 1.387687,0.35967 0.686262,0.13092 1.413866,0.26045 2.181433,0.38723 0.76757,0.12816 1.480015,0.20809 2.138718,0.2384 0.660079,0.0289 1.220943,0.0675 1.683964,0.11162 0.461641,0.0455 1.298113,0.0689 2.505276,0.0703 1.208539,0 2.184192,-0.008 2.926955,-0.0275 0.742763,-0.0193 1.314647,-0.0469 1.714281,-0.0813 0.40101,-0.0345 0.978408,-0.0524 1.730816,-0.0551 0.752408,-0.001 1.467612,-0.0331 2.14285,-0.0951 0.676617,-0.0606 1.382176,-0.10611 2.120804,-0.13367 0.73725,-0.0289 1.336697,-0.0744 1.795583,-0.13918 0.45889,-0.0648 0.797884,-0.10473 1.016995,-0.12127 0.219106,-0.0165 0.47129,-0.0565 0.756542,-0.12126 0.285256,-0.0648 0.657324,-0.10198 1.11759,-0.11163 0.460265,-0.01 0.912262,-0.0606 1.357368,-0.15296 0.445107,-0.0909 0.890214,-0.1819 1.338076,-0.27147 0.447865,-0.0896 0.706935,-0.01 0.77446,0.24116"
       id="path1216" />
    <path
       style="fill:none;stroke:#386bd9;stroke-width:0.950002;stroke-linecap:round;stroke-linejoin:round;stroke-miterlimit:10;stroke-opacity:1"
       d="m 74.987788,184.53451 c -0.101974,-0.33624 0.0069,-0.45338 0.32384,-0.35278 0.230131,0.0744 0.610471,0.1006 1.139638,0.0786 0.52779,-0.0207 0.902617,-0.0606 1.124479,-0.11989 0.220486,-0.0606 0.338998,-0.0923 0.355536,-0.0965 l 0.0069,-0.001 -0.05512,0.011 c -0.04823,0.011 -0.403765,0.0882 -1.066603,0.23151 -0.662837,0.1447 -1.1796,0.24254 -1.551671,0.2949 -0.372072,0.0524 -0.566375,0.113 -0.580154,0.1819 -0.01379,0.0689 0.16123,0.1323 0.525032,0.19155 0.365178,0.0593 0.682128,0.0772 0.953601,0.0537 0.271476,-0.0248 0.507121,-0.0689 0.706935,-0.13367 0.199816,-0.0648 0.311439,-0.10198 0.337619,-0.11025 0.02618,-0.008 0.02893,-0.0124 0.0096,-0.0124 -0.02067,0.001 -0.106108,0.004 -0.259073,0.008 -0.15296,0.006 -0.267338,0.0345 -0.343129,0.0896 -0.07579,0.0537 -0.0689,0.0675 0.02067,0.0372 0.08957,-0.0289 0.314194,-0.10198 0.672483,-0.22048 0.358291,-0.11714 0.649058,-0.20671 0.872299,-0.26872 0.223241,-0.062 0.345888,-0.0965 0.366557,-0.10198 0.02205,-0.007 0.0041,-0.01 -0.05374,-0.01 -0.05788,0 -0.388609,-10e-4 -0.990812,-0.003 -0.602202,-0.003 -1.063843,-0.0124 -1.384927,-0.0289 -0.319705,-0.0179 -0.498853,-0.0275 -0.536057,-0.0289 -0.03859,-0.003 -0.03168,-0.007 0.01792,-0.0124 0.05099,-0.007 0.290767,-0.0358 0.717959,-0.0882 0.42719,-0.0524 0.788237,-0.10611 1.084517,-0.15986 0.436838,-0.0799 0.95498,-0.12402 1.555806,-0.13504"
       id="path1218" />
    <path
       style="fill:none;stroke:#007300;stroke-width:0.950002;stroke-linecap:round;stroke-linejoin:round;stroke-miterlimit:10;stroke-opacity:1"
       d="m 25.332902,184.22996 c 0.6463,0.1006 1.466233,0.15296 2.4598,0.15572 0.644924,0.001 1.25126,-0.0689 1.821769,-0.21222 0.569129,-0.14332 1.000457,-0.26182 1.293978,-0.35553 0.293522,-0.0937 0.574643,-0.20257 0.840603,-0.3266 0.267342,-0.1254 0.519521,-0.22048 0.753791,-0.28663 0.235641,-0.0661 0.56086,-0.18328 0.978404,-0.35416 0.416168,-0.1695 0.824068,-0.33899 1.222322,-0.50711 0.396875,-0.16675 0.748277,-0.3514 1.051444,-0.55122 0.30317,-0.19982 0.536056,-0.35967 0.69729,-0.47956 0.16123,-0.11851 0.500228,-0.30317 1.014236,-0.54983 0.514007,-0.24805 0.921907,-0.43684 1.220942,-0.565 0.299032,-0.12816 0.578775,-0.26596 0.835092,-0.41341 0.257694,-0.14607 0.529167,-0.26459 0.811664,-0.35692 0.283877,-0.0909 0.635276,-0.19154 1.054199,-0.29903 0.420303,-0.10749 0.822692,-0.18052 1.209919,-0.21911 0.38723,-0.0386 0.886078,-0.0579 1.49655,-0.0592 0.609095,-0.001 1.036288,0.0427 1.281578,0.13091 0.243914,0.0882 0.468535,0.1571 0.672483,0.20395 0.202572,0.0469 0.465776,0.11713 0.78686,0.20808 0.32246,0.091 0.724849,0.32798 1.207163,0.71107 0.482314,0.38172 0.824068,0.61874 1.028016,0.71107 0.202572,0.0923 0.384474,0.20119 0.547084,0.3266 0.16123,0.12402 0.373447,0.26044 0.635275,0.40652 0.261828,0.14607 0.520898,0.31144 0.777212,0.49333 0.256318,0.18328 0.494718,0.39275 0.715204,0.62977 0.220486,0.23702 0.468535,0.45338 0.744142,0.64768 0.275608,0.1943 0.547081,0.3197 0.815799,0.37482 0.268718,0.0551 0.508497,0.11025 0.71658,0.16675 0.208082,0.0565 0.496093,0.0854 0.861275,0.0868 0.365178,0.001 0.649054,0.0413 0.851626,0.12127 0.202573,0.0799 0.450621,0.13918 0.746898,0.17639 0.294901,0.0372 0.534681,0.0868 0.720714,0.15021 0.186038,0.062 0.482315,0.11299 0.886079,0.15158 0.405145,0.0386 0.785485,0.0579 1.141018,0.0593 0.355533,0.001 0.627006,0.0234 0.813043,0.0661 0.186034,0.0441 0.417544,0.0703 0.693152,0.0799 0.275608,0.01 0.603582,0.0469 0.981167,0.11162 0.377581,0.0634 0.767567,0.11851 1.169952,0.16399 0.582912,0.0648 1.591638,0.0413 3.024798,-0.0703"
       id="path1220" />
    <path
       style="fill:none;stroke:#00a300;stroke-width:0.950002;stroke-linecap:round;stroke-linejoin:round;stroke-miterlimit:10;stroke-opacity:1"
       d="m 23.632404,185.07608 c 0.412034,-0.006 0.792371,-0.003 1.141014,0.008 0.23289,0.007 0.483694,0.0799 0.748277,0.21635 0.265963,0.13643 0.522277,0.29215 0.768946,0.4644 0.246669,0.17363 0.638031,0.3831 1.175466,0.62839 0.536057,0.24529 0.908128,0.40514 1.112079,0.47956 0.205328,0.0744 0.540191,0.13091 1.003212,0.16812 0.4644,0.0372 1.036285,0.0565 1.715657,0.0579 0.679376,0 1.190629,-0.0303 1.533758,-0.0923 0.344512,-0.0634 0.711069,-0.14883 1.098299,-0.25632 0.388606,-0.10749 0.690397,-0.22048 0.906749,-0.339 0.214975,-0.11851 0.530546,-0.21497 0.946714,-0.28938 0.416169,-0.0758 0.821309,-0.17226 1.216808,-0.28939 0.395496,-0.11714 0.777212,-0.24943 1.145149,-0.39688 0.367936,-0.14745 0.677996,-0.30455 0.9288,-0.47404 0.250804,-0.16812 0.552595,-0.32522 0.905372,-0.47267 0.352778,-0.14745 0.797885,-0.30455 1.336697,-0.47129 0.537435,-0.16674 0.957738,-0.32246 1.262284,-0.46853 0.301791,-0.1447 0.624251,-0.32109 0.964629,-0.53055 0.340374,-0.20808 0.693152,-0.44511 1.056954,-0.71107 0.363802,-0.26596 0.664217,-0.44648 0.902617,-0.53881 0.237021,-0.0937 0.447862,-0.22738 0.63114,-0.39963 0.183279,-0.17226 0.480935,-0.39963 0.891593,-0.68075 0.410655,-0.2825 0.712446,-0.49885 0.908128,-0.64768 0.195682,-0.14883 0.458886,-0.32384 0.792371,-0.52366 0.333487,-0.19981 0.686265,-0.36104 1.059712,-0.48093 0.373451,-0.12127 0.792374,-0.20809 1.25815,-0.26321 0.464401,-0.0551 0.985298,-0.1378 1.561321,-0.24667 0.576019,-0.11024 1.044554,-0.17914 1.404221,-0.2067 0.359668,-0.0289 0.897103,-0.0427 1.613683,-0.0441 0.715201,-0.001 1.200274,0.0303 1.453833,0.0923 0.253559,0.0634 0.588422,0.23013 1.001832,0.50298 0.414789,0.27423 0.790995,0.56913 1.129993,0.88884 0.338998,0.31832 0.629765,0.61323 0.8723,0.8847 0.24391,0.27147 0.475421,0.49885 0.694531,0.68075 0.220486,0.18328 0.40652,0.30868 0.559484,0.37483 0.152961,0.0675 0.337619,0.20257 0.55535,0.4079 0.217731,0.20395 0.518142,0.38171 0.899859,0.5333 0.383095,0.15158 0.701421,0.29214 0.956359,0.41892 0.254938,0.12816 0.53468,0.23014 0.837847,0.30455 0.304546,0.0744 0.599447,0.12126 0.884703,0.14056 0.285253,0.0179 0.611847,0.0951 0.977029,0.22875 0.366557,0.13367 0.722094,0.22876 1.067982,0.28526 0.345884,0.0565 0.745518,0.0951 1.20027,0.11575 0.672482,0.0303 1.409735,0.19431 2.21313,0.49059"
       id="path1222" />
    <path
       style="fill:none;stroke:#00d100;stroke-width:0.950002;stroke-linecap:round;stroke-linejoin:round;stroke-miterlimit:10;stroke-opacity:1"
       d="m 21.758269,185.58457 c 0.436837,-0.11437 0.80064,-0.0661 1.094165,0.14332 0.201192,0.14332 0.467155,0.2508 0.800639,0.32246 0.332109,0.0717 0.665593,0.13505 0.996323,0.18879 0.332108,0.0538 0.865409,0.24254 1.598524,0.565 0.733118,0.32108 1.367017,0.5774 1.903074,0.76481 0.534677,0.18879 0.967383,0.35967 1.295357,0.51539 0.32935,0.15434 0.624251,0.28663 0.8847,0.39687 0.260449,0.11024 0.4644,0.24805 0.613226,0.41479 0.14883,0.16674 0.418924,0.29766 0.807533,0.38999 0.389986,0.0923 0.771702,0.2067 1.146528,0.34313 0.374827,0.13643 0.80064,0.26045 1.27882,0.36931 0.479559,0.11025 0.876434,0.18052 1.190625,0.21084 0.315573,0.0289 0.54157,0.0675 0.679375,0.11163 0.136427,0.0455 0.457507,0.0689 0.96187,0.0703 0.504363,0.001 0.917776,-0.0482 1.241616,-0.14608 0.323839,-0.0992 0.591178,-0.17501 0.803395,-0.22738 0.210841,-0.0524 0.705555,-0.25631 1.485526,-0.61184 0.77997,-0.35691 1.262284,-0.58567 1.446942,-0.68627 0.186034,-0.10059 0.4203,-0.20119 0.702801,-0.30179 0.282497,-0.0992 0.592553,-0.24667 0.930176,-0.43822 0.337619,-0.19292 0.63941,-0.34313 0.902614,-0.45199 0.264583,-0.11025 0.515387,-0.24667 0.755166,-0.41066 0.23978,-0.16398 0.476801,-0.29214 0.713825,-0.38447 0.235645,-0.0923 0.479555,-0.21497 0.731739,-0.36931 0.250803,-0.15297 0.633895,-0.34176 1.147907,-0.56362 0.514007,-0.22186 1.062468,-0.4768 1.644001,-0.76481 0.580153,-0.28801 1.081761,-0.55122 1.50206,-0.78962 0.420303,-0.23978 0.764812,-0.45475 1.032154,-0.6463 0.267338,-0.19155 0.577398,-0.37896 0.928797,-0.56224 0.351398,-0.18466 0.647679,-0.35967 0.888834,-0.52366 0.242535,-0.16398 0.530546,-0.31143 0.86541,-0.44097 0.334863,-0.13091 0.722093,-0.34175 1.161686,-0.63527 0.440973,-0.29215 0.803399,-0.54709 1.088651,-0.76757 0.285256,-0.21911 0.553971,-0.37896 0.804775,-0.4768 0.252183,-0.0978 0.501607,-0.23013 0.748277,-0.3955 0.246669,-0.16537 0.530546,-0.30041 0.848871,-0.40377 0.319705,-0.10473 0.647679,-0.17087 0.981163,-0.19706 0.333485,-0.0275 0.650434,-0.0813 0.94947,-0.1626 0.297656,-0.0799 0.629765,-0.21636 0.992187,-0.40928 0.363802,-0.19293 0.804775,-0.2949 1.322917,-0.30593 0.516766,-0.0124 0.953604,0.0358 1.309137,0.14332 0.355537,0.10886 0.683511,0.18052 0.982543,0.21773 0.300415,0.0358 0.588422,0.14056 0.865409,0.31281 0.278363,0.17226 0.522277,0.35692 0.731739,0.55535 0.210841,0.19844 0.402389,0.35416 0.574643,0.46578 0.173634,0.113 0.327974,0.26045 0.465776,0.44097 0.137806,0.18053 0.275608,0.34313 0.413414,0.48783 0.139181,0.14469 0.259069,0.31281 0.359667,0.50436 0.100598,0.19017 0.259069,0.39274 0.475425,0.60634 0.214972,0.21222 0.370691,0.40514 0.464396,0.57602 0.09371,0.17088 0.282501,0.3266 0.564998,0.4644 0.282498,0.13918 0.518143,0.30454 0.708311,0.49472 0.190169,0.19016 0.421679,0.35002 0.693156,0.48093 0.39274,0.18879 1.25677,0.42857 2.592091,0.72072"
       id="path1224" />
  </g>
</svg>
